<svg xmlns="http://www.w3.org/2000/svg" width="280" height="113" viewBox="0 0 280 113">
  <g id="about_title" transform="translate(-72 -227)">
    <rect id="長方形_1214" data-name="長方形 1214" width="256" height="88" transform="translate(72 227)" fill="#6ca1aa"/>
    <rect id="長方形_1215" data-name="長方形 1215" width="256" height="88" transform="translate(96 252)" fill="#426f77"/>
    <rect id="長方形_1213" data-name="長方形 1213" width="256" height="88" transform="translate(80 235)" fill="#fff"/>
    <g id="グループ_4166" data-name="グループ 4166" transform="matrix(0.998, 0.07, -0.07, 0.998, 56.055, 116.549)">
      <path id="パス_2988" data-name="パス 2988" d="M73.039,175.686a8.943,8.943,0,0,0-1.408.547c-2.1,1.428-4.146.782-6.142-.2a2.414,2.414,0,0,1-.219-4.2,41.233,41.233,0,0,1,4-1.884c2.371-1.092,4.737-2.2,7.12-3.264a3.9,3.9,0,0,0,2.1-2.126c1.5-3.563,3.355-7.023,4.428-10.71,1.171-4.016,2.641-7.959,3.38-12.116.715-4.026,1.793-7.985,2.608-12a31.5,31.5,0,0,0,.581-9.5,7.074,7.074,0,0,1,0-1.357,1.932,1.932,0,0,1,1.435-1.714,12.685,12.685,0,0,1,1.685-.272,3.848,3.848,0,0,1,4.381,2.448,98.915,98.915,0,0,1,5.621,13.9c1.911,5.83,3.754,11.682,5.628,17.523.07.217.157.428.241.638.388.975.859,1.25,1.826,1.027,1.33-.306,2.645-.675,3.983-.932a17.747,17.747,0,0,1,2.708-.264,1.622,1.622,0,0,1,1.667.941c.295.623.227,1.163-.594,1.746-1.381.98-2.83,1.873-4.291,2.733a18.11,18.11,0,0,1-1.9.742,1.211,1.211,0,0,0-.805,1.633c.16.544.348,1.082.537,1.616.953,2.679,1.833,5.388,2.887,8.026,1.783,4.456,2.621,9.161,3.767,13.784a10.47,10.47,0,0,1,.12,2.719,2.442,2.442,0,0,1-2.092,2.684,5.27,5.27,0,0,1-3.935-.607,1.525,1.525,0,0,1-.878-1.7c.676-1.971.1-3.865-.369-5.695-1.19-4.623-2.571-9.2-3.893-13.785-.41-1.421-.839-2.839-1.328-4.234-.479-1.37-1.254-1.733-2.679-1.214a100.929,100.929,0,0,0-12.273,5.129c-2.217,1.156-4.358,2.457-6.571,3.62a5.492,5.492,0,0,0-2.347,2.376q-2.672,4.949-5.4,9.868c-1.046,1.891-2.072,3.8-3.217,5.628a12.986,12.986,0,0,1-7.815,5.7c-2.029.564-3.789-.214-5.42-1.324a1.194,1.194,0,0,1-.483-1.5c.177-.366.626-.6.965-.885a.551.551,0,0,1,.322-.1c3.379-.063,5.311-2.329,7.081-4.75a39.282,39.282,0,0,0,2.257-3.811C71.152,179.092,71.97,177.6,73.039,175.686Zm22.246-43.1a16.166,16.166,0,0,0-.666,2.066A153.577,153.577,0,0,1,90.3,151.11c-.916,3.145-2.447,6.075-3.138,9.29-.014.063.178.246.222.231,2.974-1.1,5.939-2.222,8.916-3.309,1.066-.389,2.2-.61,3.242-1.047,4.134-1.736,3.808-.825,2.525-4.978-1.841-5.966-4.039-11.821-6.1-17.719A5.409,5.409,0,0,0,95.286,132.582Z" transform="translate(0 1.737)" fill="#333"/>
      <path id="パス_2989" data-name="パス 2989" d="M112.5,163.24c1.275-.674,2.354-1.281,3.466-1.818,1.533-.743,3.06-1.518,4.647-2.129,3.717-1.431,7.4-.9,10.979.516,2.359.933,3.282,3.024,3.8,5.314a2.3,2.3,0,0,1-.3,1.3c-.988,2.17-1.985,4.337-3.034,6.477a27.131,27.131,0,0,1-1.561,2.636,11.891,11.891,0,0,1-1.569,2.225c-3.425,3.318-6.678,6.826-10.54,9.671-1.214.894-1.211.9-.765,2.173,1.167,3.325,2.255,6.687,4.459,9.53a1.045,1.045,0,0,1-.086,1.271,2.761,2.761,0,0,1-2.939,1.267,5.484,5.484,0,0,1-4.045-3.348c-.828-1.612-1.439-3.335-2.139-5.011a4.279,4.279,0,0,1-.192-.656,3.3,3.3,0,0,0-2.269-2.731,2.743,2.743,0,0,1-.828-.59c-.691-.57-1.1-1.471-.626-2.1,1.432-1.907.936-3.828.333-5.8-.033-.107,0-.237-.046-.336-1.144-2.654-1.236-5.524-1.692-8.317a28.409,28.409,0,0,0-.894-5.024,7.121,7.121,0,0,1-.162-2.031,6.583,6.583,0,0,0-.036-1.7c-.77-2.31-.656-4.73-.787-7.087-.1-1.81-.4-3.591-.475-5.4-.2-4.871-.571-9.744-.557-14.615.011-3.626-.218-7.244-.151-10.871a42.868,42.868,0,0,1,.834-7.787,12.1,12.1,0,0,1,1.38-3.46,4.634,4.634,0,0,1,1.727-1.556c2.256-1.3,4.223.2,4.957,2a3.075,3.075,0,0,1,.08,1.653,10.475,10.475,0,0,1-.66,1.562,15.463,15.463,0,0,0-1.085,3.209,76.335,76.335,0,0,0-.762,8.48c-.11,6.37-.121,12.746,0,19.117.07,3.744.433,7.485.745,11.219A15.24,15.24,0,0,0,112.5,163.24Zm13.644.744a6.763,6.763,0,0,0-4.1,1.05c-.952.618-1.93,1.2-2.9,1.793-2.9,1.776-4.307,4.579-5.266,7.683a1.4,1.4,0,0,0-.019.67c.4,1.884.809,3.769,1.273,5.639.043.177.483.321.754.352a.985.985,0,0,0,.61-.272,36.488,36.488,0,0,0,10.074-12.277,17.219,17.219,0,0,0,1.107-3.554.831.831,0,0,0-.74-.968C126.616,164.03,126.277,164,126.149,163.984Z" transform="translate(19.095)" fill="#333"/>
      <path id="パス_2990" data-name="パス 2990" d="M196.845,120.417a25.43,25.43,0,0,0-.483,7.318c.02.764.379,1.072,1.065.9,2.091-.53,4.183-1.065,6.255-1.662a3.068,3.068,0,0,1,3.174.6,2.657,2.657,0,0,1-.021,4.161,12.291,12.291,0,0,1-3.329,1.65c-2.045.681-4.151,1.18-6.229,1.763-1.241.349-1.4.56-1.435,1.938a10.077,10.077,0,0,0,.041,2.384c.526,2.361.329,4.756.486,7.131.134,2.036.462,4.062.7,6.091.281,2.367.45,4.754.871,7.1.44,2.454,1.112,4.867,1.7,7.294.268,1.1.634,2.186.859,3.3a2.615,2.615,0,0,1-2.282,3.211,1.39,1.39,0,0,1-1.191-.406c-1.076-1.71-2.557-3.172-3.014-5.269a21.976,21.976,0,0,0-1.39-4.181,11.751,11.751,0,0,1-1.1-4.942,27.26,27.26,0,0,0-.822-4.659c-.312-1.89-.573-3.779-.871-5.668-.285-1.816-.281-3.616-.446-5.418-.145-1.579-.462-3.141-.71-4.709a.739.739,0,0,0-.976-.636c-2.5.771-4.977,1.6-7.492,2.307-1.744.49-3.527.855-5.309,1.2a6.374,6.374,0,0,1-5.646-1.746,1.812,1.812,0,0,1-.465-2.165,3.658,3.658,0,0,1,3.312-2.534c4.147-.133,7.954-1.9,12.008-2.455a2.155,2.155,0,0,0,.326-.1c4.173-1.31,4.349-1.522,4.435-5.884.037-1.93-.06-3.865.021-5.792a11.893,11.893,0,0,1,.547-2.989,2.183,2.183,0,0,1,2.064-1.531,5.432,5.432,0,0,1,5.126,3.258A6.129,6.129,0,0,1,196.845,120.417Z" transform="translate(46.356 1.375)" fill="#333"/>
      <path id="パス_2991" data-name="パス 2991" d="M149.268,148.751c.234-1.854.373-3.787.738-5.675.526-2.715,2.971-3.074,4.711-2.1a8.6,8.6,0,0,1,2.082,1.7,2.713,2.713,0,0,1,.593,2.872c-1.036,2.648-.73,5.366-.567,8.083A4.373,4.373,0,0,0,157,154.98c.539,1.33.817,2.835,2.226,3.635a6.66,6.66,0,0,0,2.628-2.6c2.5-3.8,4.858-7.687,5.958-12.165a33.068,33.068,0,0,0,.619-4.367c.085-.788-.014-1.6.056-2.387.2-2.252,1.508-3.188,3.751-2.7a9.87,9.87,0,0,1,1.622.523c2.094.864,2.688,1.944,2.37,4.271a23.643,23.643,0,0,0,.165,9.477,20.762,20.762,0,0,0,3.621,7.278c.48.63.932,1.283,1.407,1.918.989,1.331.713,2.313-.8,2.882a3.089,3.089,0,0,1-2.933-.194,14.678,14.678,0,0,1-3.484-3.211c-1.12-1.37-1.489-3.335-3.275-4.169-.874,1.582-1.773,3.15-2.617,4.749a20.2,20.2,0,0,1-3.091,4.878,6.508,6.508,0,0,1-3.5,1.968,7.607,7.607,0,0,1-5.25-.848,10.775,10.775,0,0,1-4.449-4.6A29.391,29.391,0,0,1,149.268,148.751Z" transform="translate(38.131 9.141)" fill="#333"/>
      <path id="パス_2992" data-name="パス 2992" d="M129.066,152.543c.52-2.273,1.075-4.82,1.7-7.351a2.569,2.569,0,0,1,2.456-2.037,2.614,2.614,0,0,0,2.343-1.655,3.062,3.062,0,0,1,3.728-1.647,15.466,15.466,0,0,1,6.863,2.872,11.1,11.1,0,0,1,3.306,12.943,25.475,25.475,0,0,1-3.537,5.822,8.251,8.251,0,0,1-10.453,2.24,9.9,9.9,0,0,1-5.849-7.844C129.474,154.875,129.287,153.87,129.066,152.543Zm7.087.479c.252,1.647.4,3,.68,4.334a1.435,1.435,0,0,0,2.364.889,9.945,9.945,0,0,0,3.794-5.492,6.966,6.966,0,0,0-1.07-6.135c-.3-.438-.929-.462-1-.016a3.342,3.342,0,0,1-2.444,2.572c-.5.2-1.159.476-1.355.9A22.011,22.011,0,0,0,136.153,153.022Z" transform="translate(29.542 11.471)" fill="#333"/>
    </g>
  </g>
</svg>
