<svg xmlns="http://www.w3.org/2000/svg" width="179.345" height="199.979" viewBox="0 0 179.345 199.979">
  <g id="prof_illust" transform="translate(-431.104 -279.505)">
    <g id="グループ_4171" data-name="グループ 4171" transform="translate(458.984 375.974)">
      <path id="パス_3004" data-name="パス 3004" d="M495.917,506.148A36.415,36.415,0,0,0,508.1,533.173a35.915,35.915,0,0,0,29.295,8.413c9.916-1.572,19.553-7.469,26.967-13.969a57.323,57.323,0,0,0,15.729-22.1l-2.469.22L570.9,545.1l-.952,5.574c-.408,2.386,2.325.908,2.592-.659l6.726-39.365.952-5.574c.383-2.241-1.967-1.059-2.468.22-4.852,12.372-14.755,22-26.36,28.178a46.435,46.435,0,0,1-8.123,3.529,34.163,34.163,0,0,1-44.683-32.338c-.025-2.173-2.682.071-2.666,1.48Z" transform="translate(-495.917 -503.763)" fill="#444"/>
    </g>
    <g id="グループ_4172" data-name="グループ 4172" transform="translate(488.089 387.211)">
      <path id="パス_3005" data-name="パス 3005" d="M564.27,533.27h15.318c1.44,0,2.853-3.383,1.272-3.383H565.543c-1.441,0-2.854,3.383-1.272,3.383Z" transform="translate(-563.575 -529.887)" fill="#444"/>
    </g>
    <g id="グループ_4173" data-name="グループ 4173" transform="translate(504.062 337.649)">
      <path id="パス_3006" data-name="パス 3006" d="M616.107,440.936c-6.148-.137-10.777-4.96-12.339-10.681a19.6,19.6,0,0,1-.321-5.233c0-1.458-.24-2.981.818-4.14,2.091-2.293,6.2-2.653,9.058-2.774,3.549-.15,7.6-.016,10.818,1.682,3.965,2.094,3.572,6.064,3.355,10a12.2,12.2,0,0,1-11.388,11.148c-1.439.032-2.837,3.418-1.272,3.383,7.457-.166,13-6.252,14.875-13.131a26.715,26.715,0,0,0,.452-7.13c0-2.175-.3-4.128-1.877-5.769-2.505-2.609-6.5-3.313-9.951-3.528-4.256-.265-9.242-.065-13.005,2.2-4.817,2.9-4.76,7.868-4.548,12.872.31,7.321,6.651,14.322,14.054,14.488C616.274,444.351,617.7,440.971,616.107,440.936Z" transform="translate(-600.708 -414.67)" fill="#444"/>
    </g>
    <g id="グループ_4174" data-name="グループ 4174" transform="translate(454.585 347.682)">
      <path id="パス_3007" data-name="パス 3007" d="M499.411,437.994H487.659c-1.441,0-2.854,3.383-1.272,3.383h11.753c1.44,0,2.853-3.383,1.272-3.383Z" transform="translate(-485.691 -437.994)" fill="#444"/>
    </g>
    <g id="グループ_4175" data-name="グループ 4175" transform="translate(531.048 347.682)">
      <path id="パス_3008" data-name="パス 3008" d="M685.212,437.994h-19.8c-1.44,0-2.853,3.383-1.272,3.383h19.8c1.44,0,2.854-3.383,1.272-3.383Z" transform="translate(-663.441 -437.994)" fill="#444"/>
    </g>
    <g id="グループ_4176" data-name="グループ 4176" transform="translate(494.04 347.682)">
      <path id="パス_3009" data-name="パス 3009" d="M588.979,437.994h-9.6c-1.44,0-2.854,3.383-1.272,3.383h9.6c1.44,0,2.854-3.383,1.272-3.383Z" transform="translate(-577.409 -437.994)" fill="#444"/>
    </g>
    <path id="パス_3010" data-name="パス 3010" d="M550.025,399.43H531.157a.492.492,0,0,0-.15.963c5.371,1.567,15.85,4.495,19.164,4.495a2.731,2.731,0,0,0,2.692-3.187A2.831,2.831,0,0,0,550.025,399.43Z" transform="translate(-56.729 -68.337)" fill="#444"/>
    <g id="グループ_4177" data-name="グループ 4177" transform="translate(488.194 352.65)">
      <path id="パス_3011" data-name="パス 3011" d="M574.161,450.531q-4.106,6.49-7.881,13.167c-1.174,2.068-2.495,4.408-2.459,6.862.045,3.082,2.584,4.319,5.281,4.863,1.386.28,2.926-3.049,1.272-3.383-2.53-.511-4.531-1.684-3.56-4.458a33.525,33.525,0,0,1,2.662-5.043c2.073-3.705,4.336-7.311,6.605-10.9,1.21-1.912-.721-3.007-1.922-1.109Z" transform="translate(-563.82 -449.543)" fill="#444"/>
    </g>
    <circle id="楕円形_46" data-name="楕円形 46" cx="1.233" cy="1.233" r="1.233" transform="translate(496.838 374.595)" fill="#444"/>
    <circle id="楕円形_47" data-name="楕円形 47" cx="2.465" cy="2.465" r="2.465" transform="translate(505.198 452.42)" fill="#444"/>
    <g id="グループ_4178" data-name="グループ 4178" transform="translate(497.803 410.519)">
      <path id="パス_3012" data-name="パス 3012" d="M588.776,592.523l1.207-7.1c.12-.7-.144-1.482-.983-1.334a2.541,2.541,0,0,0-1.609,1.992l-1.208,7.1c-.12.7.144,1.482.983,1.334a2.542,2.542,0,0,0,1.61-1.992Z" transform="translate(-586.157 -584.07)" fill="#444"/>
    </g>
    <g id="グループ_4179" data-name="グループ 4179" transform="translate(468.843 279.506)">
      <path id="パス_3013" data-name="パス 3013" d="M614.549,348.07c.779-3.166,1.623-6.323,2.338-9.5a72.634,72.634,0,0,0,1.669-18.832,38.189,38.189,0,0,0-13.592-27.874,54.57,54.57,0,0,0-25.327-11.546,64,64,0,0,0-14.744-.681,83.121,83.121,0,0,0-19.823,3.027c-10.267,3.054-20.406,9.459-25.893,18.923-1.128,1.947.787,3.066,1.922,1.11,4.512-7.781,12.964-13.222,21.29-16.053a87.289,87.289,0,0,1,33.735-3.308c18.553,2.622,37.143,14.879,39.518,34.73,1.263,10.552-1.2,20.544-3.685,30.667-.185.75.19,1.411.982,1.334.858-.084,1.438-1.291,1.61-1.992Z" transform="translate(-518.834 -279.506)" fill="#444"/>
    </g>
    <g id="グループ_4180" data-name="グループ 4180" transform="translate(542.146 350.718)">
      <path id="パス_3014" data-name="パス 3014" d="M689.315,465.445c1.074,2.651,3.572,5.227,6.643,5.023,3.2-.212,6.066-3.534,7.985-5.778,3.539-4.139,10.535-14.092,3.78-18.654-4.278-2.89-9.616,1.217-12.549,4.146-.527.527-1.282,1.587-.92,2.39a.948.948,0,0,0,1.646.185c2.445-2.441,7.4-6.447,10.668-2.921,2.385,2.575.742,5.936-.766,8.471-1.786,3-4.282,6.5-7.4,8.255-2.642,1.487-5.516-.832-6.524-3.321-.717-1.769-3.089.916-2.567,2.205Z" transform="translate(-689.241 -445.051)" fill="#444"/>
    </g>
    <g id="グループ_4181" data-name="グループ 4181" transform="translate(518.787 405.618)">
      <path id="パス_3015" data-name="パス 3015" d="M652.171,575.947a15.409,15.409,0,0,1,7,5.744c3.071,4.716,2.1,11.213-.732,15.819-3.055,4.971-8.78,8.768-14.39,10.309l.97.56L637.6,591.2l-1.919,2.794c5.064-.1,10.582-.8,15.175-3.022,2.7-1.309,5.132-3.569,5.612-6.663.391-2.522-.536-6.368-3.573-6.739-1.42-.173-2.913,3.183-1.272,3.383,1.962.24,2.823,3.341,1.983,4.866-1.005,1.826-3.927,2.663-5.764,3.2a42.549,42.549,0,0,1-10.888,1.6c-1.085.022-2.388,1.709-1.919,2.794l7.412,17.182c.181.419.477.7.97.56a30.773,30.773,0,0,0,13.082-7.686c6.164-6.111,10.166-17.149,4.7-24.946a16.713,16.713,0,0,0-7.18-5.768c-1.442-.576-3.2,2.665-1.849,3.2Z" transform="translate(-634.938 -572.676)" fill="#444"/>
    </g>
    <g id="グループ_4182" data-name="グループ 4182" transform="translate(488.522 410.478)">
      <path id="パス_3016" data-name="パス 3016" d="M576.707,584.034c-5.562,2.109-10.719,6.894-11.853,12.9-1.373,7.269,2.661,15.628,7.62,20.807,1.033,1.079,2.223-.883,2.443-1.726l4.592-17.6a1.033,1.033,0,0,0-.66-1.362c-2.539-.44-2.658-2.316-2.367-4.578.308-2.4-2.388-.932-2.593.659-.433,3.368-.2,6.628,3.687,7.3l-.66-1.362-4.592,17.6,2.443-1.726c-4.192-4.378-7.551-10.808-7.481-16.947.039-3.431,1.936-6.135,4.57-8.174a19.291,19.291,0,0,1,2.992-1.881c.4-.206,1.266-.6,1.233-.582a2.6,2.6,0,0,0,1.61-1.992c.077-.569-.122-1.66-.983-1.334Z" transform="translate(-564.583 -583.974)" fill="#444"/>
    </g>
    <g id="グループ_4183" data-name="グループ 4183" transform="translate(500.834 423.537)">
      <path id="パス_3017" data-name="パス 3017" d="M593.239,617.139l4.9,18.213c.482,1.794,2.926-.867,2.566-2.206l-4.9-18.213c-.482-1.794-2.926.867-2.566,2.205Z" transform="translate(-593.203 -614.332)" fill="#444"/>
    </g>
    <g id="グループ_4184" data-name="グループ 4184" transform="translate(489.164 428.099)">
      <path id="パス_3018" data-name="パス 3018" d="M566.11,627.744l11.284,41.969,1.615,6.008c.482,1.794,2.926-.867,2.566-2.206l-11.284-41.969-1.615-6.008c-.483-1.794-2.927.867-2.567,2.206Z" transform="translate(-566.074 -624.937)" fill="#444"/>
    </g>
    <path id="パス_3019" data-name="パス 3019" d="M558.235,639.186a.867.867,0,0,1-.865-.86.758.758,0,0,1,.017-.172.947.947,0,0,1,.047-.159,1.214,1.214,0,0,1,.082-.151.784.784,0,0,1,.108-.129.866.866,0,0,1,.779-.237.7.7,0,0,1,.159.047.651.651,0,0,1,.151.082.769.769,0,0,1,.133.108,1.076,1.076,0,0,1,.108.129.813.813,0,0,1,.077.151.667.667,0,0,1,.047.159.762.762,0,0,1,.017.172.859.859,0,0,1-.86.86Z" transform="translate(-71.951 -203.975)" fill="#444"/>
    <path id="パス_3020" data-name="パス 3020" d="M569.371,683.06a.862.862,0,0,1,.607-1.058h0a.867.867,0,0,1,1.058.611h0a.864.864,0,0,1-.611,1.058h0a.818.818,0,0,1-.224.03h0A.861.861,0,0,1,569.371,683.06Zm-.9-3.338a.863.863,0,0,1,.607-1.058h0a.861.861,0,0,1,1.058.607h0a.862.862,0,0,1-.607,1.058h0a.822.822,0,0,1-.224.03h0A.863.863,0,0,1,568.472,679.721Zm-.9-3.343a.865.865,0,0,1,.611-1.058h0a.858.858,0,0,1,1.054.611h0a.861.861,0,0,1-.607,1.058h0a1.017,1.017,0,0,1-.224.026h0A.864.864,0,0,1,567.573,676.379Zm-.9-3.342a.868.868,0,0,1,.611-1.058h0a.868.868,0,0,1,1.058.611h0a.864.864,0,0,1-.611,1.058h0a.8.8,0,0,1-.224.03h0A.863.863,0,0,1,566.674,673.037Zm-.9-3.338a.866.866,0,0,1,.611-1.058h0a.862.862,0,0,1,1.058.606h0a.861.861,0,0,1-.611,1.059h0a.8.8,0,0,1-.224.03h0A.864.864,0,0,1,565.775,669.7Zm-.895-3.342a.862.862,0,0,1,.607-1.058h0a.864.864,0,0,1,1.058.611h0a.865.865,0,0,1-.611,1.058h0a1,1,0,0,1-.224.03h0A.861.861,0,0,1,564.88,666.356Zm-.9-3.342a.862.862,0,0,1,.607-1.058h0a.864.864,0,0,1,1.058.611h0a.862.862,0,0,1-.607,1.058h0a.83.83,0,0,1-.228.03h0A.861.861,0,0,1,563.981,663.014Zm-.9-3.339a.865.865,0,0,1,.611-1.058h0a.856.856,0,0,1,1.054.607h0a.857.857,0,0,1-.607,1.058h0a.805.805,0,0,1-.224.031h0A.864.864,0,0,1,563.082,659.675Zm-.9-3.342a.864.864,0,0,1,.611-1.058h0a.864.864,0,0,1,1.058.611h0a.864.864,0,0,1-.611,1.058h0a1,1,0,0,1-.224.03h0A.868.868,0,0,1,562.183,656.333Zm-.895-3.342a.855.855,0,0,1,.607-1.054h0a.862.862,0,0,1,1.058.607h0a.864.864,0,0,1-.611,1.058h0a.8.8,0,0,1-.224.03h0A.861.861,0,0,1,561.288,652.991Zm-.9-3.338a.862.862,0,0,1,.607-1.058h0a.861.861,0,0,1,1.058.61h0a.86.86,0,0,1-.611,1.054h0a.793.793,0,0,1-.224.03h0A.863.863,0,0,1,560.389,649.653Zm-.9-3.342a.862.862,0,0,1,.607-1.058h0a.866.866,0,0,1,1.058.611h0a.862.862,0,0,1-.607,1.058h0a1.033,1.033,0,0,1-.228.03h0A.862.862,0,0,1,559.49,646.31Z" transform="translate(-73.141 -208.398)" fill="#444"/>
    <path id="パス_3021" data-name="パス 3021" d="M585.38,740.15a.872.872,0,0,1-.611-.253,1.68,1.68,0,0,1-.108-.133.97.97,0,0,1-.077-.146.708.708,0,0,1-.047-.164.824.824,0,0,1,0-.335.711.711,0,0,1,.047-.163.972.972,0,0,1,.077-.147,1.145,1.145,0,0,1,.108-.133,1.035,1.035,0,0,1,.133-.108.8.8,0,0,1,.151-.077.99.99,0,0,1,.159-.052.881.881,0,0,1,.336,0,1.04,1.04,0,0,1,.163.052.951.951,0,0,1,.151.077.778.778,0,0,1,.129.108.829.829,0,0,1,.108.133,1,1,0,0,1,.082.147,1.023,1.023,0,0,1,.047.163.824.824,0,0,1,0,.335,1.014,1.014,0,0,1-.047.164.714.714,0,0,1-.082.146.789.789,0,0,1-.108.133.771.771,0,0,1-.28.185,1.085,1.085,0,0,1-.159.051A1.11,1.11,0,0,1,585.38,740.15Z" transform="translate(-87.421 -261.506)" fill="#444"/>
    <g id="グループ_4185" data-name="グループ 4185" transform="translate(503.125 423.721)">
      <path id="パス_3022" data-name="パス 3022" d="M614.612,615.725l-15.676,23.627c-1.254,1.89.686,2.972,1.922,1.109l15.676-23.627c1.254-1.89-.686-2.972-1.922-1.109Z" transform="translate(-598.531 -614.759)" fill="#444"/>
    </g>
    <g id="グループ_4186" data-name="グループ 4186" transform="translate(510.92 431.42)">
      <path id="パス_3023" data-name="パス 3023" d="M646.759,633.624l-26,39.186-3.7,5.581c-1.253,1.89.686,2.972,1.922,1.11l26-39.186,3.7-5.582c1.254-1.89-.686-2.972-1.922-1.109Z" transform="translate(-616.651 -632.657)" fill="#444"/>
    </g>
    <g id="グループ_4187" data-name="グループ 4187" transform="translate(517.876 427.764)">
      <path id="パス_3024" data-name="パス 3024" d="M708.42,625.884a.848.848,0,0,1-.607-.254.876.876,0,0,1-.189-.28.851.851,0,0,1-.065-.331.717.717,0,0,1,.017-.168.754.754,0,0,1,.047-.16.736.736,0,0,1,.081-.15.794.794,0,0,1,.108-.133.864.864,0,0,1,.779-.232.747.747,0,0,1,.159.047.724.724,0,0,1,.151.082.7.7,0,0,1,.129.1.87.87,0,0,1,.254.611.86.86,0,0,1-.064.331.9.9,0,0,1-.469.469A.859.859,0,0,1,708.42,625.884Z" transform="translate(-675.409 -624.158)" fill="#444"/>
      <path id="パス_3025" data-name="パス 3025" d="M637.6,675.121a.865.865,0,0,1-.241-1.2h0a.865.865,0,0,1,1.2-.24h0a.862.862,0,0,1,.245,1.2h0a.872.872,0,0,1-.723.387h0A.863.863,0,0,1,637.6,675.121Zm1.893-2.848a.865.865,0,0,1-.241-1.2h0a.861.861,0,0,1,1.2-.245h0a.866.866,0,0,1,.241,1.2h0a.855.855,0,0,1-.718.387h0A.88.88,0,0,1,639.494,672.273Zm1.893-2.852a.857.857,0,0,1-.241-1.2h0a.863.863,0,0,1,1.2-.24h0a.863.863,0,0,1,.24,1.2h0a.871.871,0,0,1-.722.387h0A.839.839,0,0,1,641.386,669.421Zm1.888-2.848a.87.87,0,0,1-.241-1.2h0a.865.865,0,0,1,1.2-.24h0a.861.861,0,0,1,.241,1.2h0a.86.86,0,0,1-.718.387h0A.89.89,0,0,1,643.275,666.573Zm1.893-2.852a.861.861,0,0,1-.241-1.2h0a.861.861,0,0,1,1.2-.24h0a.863.863,0,0,1,.24,1.2h0a.859.859,0,0,1-.718.383h0A.848.848,0,0,1,645.167,663.722Zm1.893-2.852a.861.861,0,0,1-.245-1.2h0a.865.865,0,0,1,1.2-.24h0a.862.862,0,0,1,.245,1.2h0a.872.872,0,0,1-.723.387h0A.838.838,0,0,1,647.06,660.87Zm1.888-2.848a.864.864,0,0,1-.241-1.2h0a.862.862,0,0,1,1.2-.245h0a.865.865,0,0,1,.241,1.2h0a.849.849,0,0,1-.718.387h0A.886.886,0,0,1,648.949,658.022Zm1.893-2.852a.861.861,0,0,1-.241-1.2h0a.863.863,0,0,1,1.2-.24h0a.863.863,0,0,1,.241,1.2h0a.861.861,0,0,1-.718.383h0A.847.847,0,0,1,650.841,655.17Zm1.893-2.852a.86.86,0,0,1-.245-1.2h0a.865.865,0,0,1,1.2-.241h0a.861.861,0,0,1,.245,1.2h0a.872.872,0,0,1-.722.387h0A.842.842,0,0,1,652.734,652.318Zm1.888-2.848a.865.865,0,0,1-.241-1.2h0a.857.857,0,0,1,1.2-.24h0a.864.864,0,0,1,.241,1.2h0a.856.856,0,0,1-.718.383h0A.886.886,0,0,1,654.623,649.47Zm1.893-2.852a.861.861,0,0,1-.245-1.2h0a.865.865,0,0,1,1.2-.241h0a.861.861,0,0,1,.245,1.2h0a.872.872,0,0,1-.722.387h0A.843.843,0,0,1,656.515,646.618Zm1.888-2.848a.866.866,0,0,1-.241-1.2h0a.862.862,0,0,1,1.2-.245h0a.861.861,0,0,1,.241,1.2h0a.849.849,0,0,1-.718.388h0A.887.887,0,0,1,658.4,643.77Zm1.893-2.852a.865.865,0,0,1-.241-1.2h0a.864.864,0,0,1,1.2-.241h0a.863.863,0,0,1,.24,1.2h0a.861.861,0,0,1-.718.383h0A.851.851,0,0,1,660.3,640.918Zm1.893-2.852a.861.861,0,0,1-.245-1.2h0a.865.865,0,0,1,1.2-.241h0a.861.861,0,0,1,.246,1.2h0a.873.873,0,0,1-.723.388h0A.842.842,0,0,1,662.189,638.066Zm1.888-2.848a.865.865,0,0,1-.241-1.2h0a.861.861,0,0,1,1.2-.241h0a.855.855,0,0,1,.24,1.192h0a.849.849,0,0,1-.718.387h0A.883.883,0,0,1,664.078,635.219Zm1.893-2.852a.861.861,0,0,1-.241-1.2h0a.864.864,0,0,1,1.2-.241h0a.864.864,0,0,1,.241,1.2h0a.871.871,0,0,1-.718.388h0A.855.855,0,0,1,665.97,632.367Z" transform="translate(-635.325 -627.935)" fill="#444"/>
      <path id="パス_3026" data-name="パス 3026" d="M633.685,738.53a.866.866,0,0,1-.865-.864.874.874,0,0,1,.254-.611.776.776,0,0,1,.129-.108.948.948,0,0,1,.151-.077,1.04,1.04,0,0,1,.163-.052.882.882,0,0,1,.336,0,1.2,1.2,0,0,1,.163.052.911.911,0,0,1,.146.077,1.039,1.039,0,0,1,.133.108.87.87,0,0,1,.249.611.857.857,0,0,1-.249.61A.871.871,0,0,1,633.685,738.53Z" transform="translate(-632.82 -688.347)" fill="#444"/>
    </g>
    <path id="パス_3027" data-name="パス 3027" d="M604.582,399.43h18.867a.492.492,0,0,1,.15.963c-5.371,1.567-15.85,4.495-19.163,4.495a2.731,2.731,0,0,1-2.692-3.187A2.831,2.831,0,0,1,604.582,399.43Z" transform="translate(-97.215 -68.337)" fill="#444"/>
    <g id="グループ_4188" data-name="グループ 4188" transform="translate(539.846 408.314)">
      <path id="パス_3028" data-name="パス 3028" d="M684.154,582.016l22.991,22.992,36.441,36.441,8.358,8.358c1.2,1.2,3.286-1.8,2.294-2.793l-22.991-22.992-36.441-36.441-8.358-8.358c-1.2-1.2-3.286,1.8-2.294,2.794Z" transform="translate(-683.894 -578.943)" fill="#444"/>
    </g>
    <g id="グループ_4189" data-name="グループ 4189" transform="translate(431.104 410.881)">
      <path id="パス_3029" data-name="パス 3029" d="M497.341,585.3l-22,22-35.107,35.107-8.115,8.115c-.527.527-1.282,1.587-.92,2.39a.948.948,0,0,0,1.646.185l22-22,35.107-35.107,8.115-8.115c.527-.527,1.282-1.586.92-2.39a.948.948,0,0,0-1.646-.184Z" transform="translate(-431.104 -584.91)" fill="#444"/>
    </g>
    <g id="グループ_4190" data-name="グループ 4190" transform="translate(539.931 347.783)">
      <path id="パス_3030" data-name="パス 3030" d="M686.368,440.148l-2.252,15.532c-.227,1.569,1.11,1.569,1.977.632l7.191-7.771c1.3-1.406.3-3.722-1.362-1.921l-7.191,7.771,1.977.631,2.252-15.533c.347-2.4-2.363-.923-2.593.659Z" transform="translate(-684.091 -438.228)" fill="#444"/>
    </g>
    <g id="グループ_4191" data-name="グループ 4191" transform="translate(473.199 345.803)">
      <path id="パス_3031" data-name="パス 3031" d="M529.657,437.009h13.98c1.44,0,2.853-3.383,1.272-3.383h-13.98c-1.44,0-2.854,3.383-1.272,3.383Z" transform="translate(-528.961 -433.626)" fill="#444"/>
    </g>
    <g id="グループ_4192" data-name="グループ 4192" transform="translate(510.503 345.803)">
      <path id="パス_3032" data-name="パス 3032" d="M616.376,437.009h13.98c1.44,0,2.854-3.383,1.272-3.383h-13.98c-1.44,0-2.853,3.383-1.272,3.383Z" transform="translate(-615.681 -433.626)" fill="#444"/>
    </g>
    <circle id="楕円形_48" data-name="楕円形 48" cx="2.465" cy="2.465" r="2.465" transform="translate(480.892 346.908)" fill="#444"/>
    <circle id="楕円形_49" data-name="楕円形 49" cx="2.465" cy="2.465" r="2.465" transform="translate(518.196 346.908)" fill="#444"/>
    <g id="グループ_4193" data-name="グループ 4193" transform="translate(466.424 290.355)">
      <path id="パス_3033" data-name="パス 3033" d="M549.6,304.729c-7,.185-13.92,1.16-19.711,5.366-5.36,3.893-9.741,8.833-15.364,12.438a2.691,2.691,0,0,0-1.307,2.264c.072.725.632,1.251,1.359.785,5.425-3.478,9.8-7.969,14.792-11.963,5.45-4.359,12.155-5.328,18.959-5.507,1.439-.038,2.834-3.424,1.272-3.383Z" transform="translate(-513.211 -304.728)" fill="#444"/>
    </g>
    <g id="グループ_4194" data-name="グループ 4194" transform="translate(458.973 316.345)">
      <path id="パス_3034" data-name="パス 3034" d="M499.553,366.747c-4.059,8.683-3.651,18.358-3.651,27.7V419.1c0,2.169,2.666-.074,2.666-1.48V385.5c0-6.321.622-12.742,3.329-18.533.291-.622.255-1.628-.536-1.8-.844-.185-1.537,1-1.808,1.582Z" transform="translate(-495.89 -365.145)" fill="#444"/>
    </g>
    <g id="グループ_4195" data-name="グループ 4195" transform="translate(543.039 372.335)">
      <path id="パス_3035" data-name="パス 3035" d="M705,498.687c3.853.068,7.208,1.977,8.609,5.68a10.005,10.005,0,0,1-.968,9.262c-2.6,3.5-7.621,3.537-11.21,1.684a20.346,20.346,0,0,1-7.493-7.029c-.794-1.237-2.355,1-2.443,1.726-.706,5.814.658,12.314,4.568,16.776,1.105,1.261,3.232-1.722,2.294-2.793-3.418-3.9-4.834-9.992-4.269-14.642l-2.443,1.726c3.812,5.935,11.333,11.226,18.44,7.726,6.228-3.066,8.533-11.674,5.615-17.746a10.29,10.29,0,0,0-9.428-5.754c-1.44-.025-2.865,3.355-1.272,3.383Z" transform="translate(-691.316 -495.304)" fill="#444"/>
    </g>
    <g id="グループ_4196" data-name="グループ 4196" transform="translate(507.636 290.355)">
      <path id="パス_3036" data-name="パス 3036" d="M609.724,308.111c6.33.31,12.835,1.457,18.053,5.288,3.553,2.609,5.945,6.287,8.189,10.008,1.065,1.766,2.114,3.549,3.345,5.207a50.968,50.968,0,0,0,4.481,4.706c4.105,4.287,3.845,9.548,4.112,15.053a13.648,13.648,0,0,0,1.942,7.217c1.868,2.714,5.035,3.956,8.088,4.8,1.341.37,2.919-2.929,1.272-3.383-2.889-.8-5.957-2.093-7.468-4.854-1.076-1.966-1.152-4.3-1.208-6.482-.136-5.3-.352-10.552-4.068-14.734-1.58-1.778-3.426-3.188-4.857-5.115-1.162-1.564-2.161-3.24-3.165-4.907-2.207-3.665-4.52-7.228-7.86-9.975-5.465-4.494-12.7-5.873-19.584-6.21-1.437-.07-2.883,3.3-1.272,3.383Z" transform="translate(-609.016 -304.727)" fill="#444"/>
    </g>
    <g id="グループ_4197" data-name="グループ 4197" transform="translate(466.637 337.649)">
      <path id="パス_3037" data-name="パス 3037" d="M529.107,440.936c-6.148-.137-10.777-4.96-12.339-10.681a19.6,19.6,0,0,1-.321-5.233c0-1.458-.24-2.981.818-4.14,2.091-2.293,6.2-2.653,9.058-2.774,3.549-.15,7.6-.016,10.818,1.682,3.965,2.094,3.572,6.064,3.355,10a12.2,12.2,0,0,1-11.388,11.148c-1.439.032-2.837,3.418-1.272,3.383,7.457-.166,13-6.252,14.875-13.131a26.715,26.715,0,0,0,.452-7.13c0-2.175-.3-4.128-1.877-5.769-2.505-2.609-6.5-3.313-9.951-3.528-4.256-.265-9.242-.065-13.005,2.2-4.817,2.9-4.76,7.868-4.548,12.872.31,7.321,6.651,14.322,14.054,14.488C529.274,444.351,530.7,440.971,529.107,440.936Z" transform="translate(-513.708 -414.67)" fill="#444"/>
    </g>
  </g>
</svg>
