<svg xmlns="http://www.w3.org/2000/svg" width="379" height="115.279" viewBox="0 0 379 115.279">
  <g id="mymanual_title" transform="translate(-72 -227)">
    <rect id="長方形_1214" data-name="長方形 1214" width="355" height="88" transform="translate(72 227)" fill="#6ca1aa"/>
    <rect id="長方形_1215" data-name="長方形 1215" width="355" height="88" transform="translate(96 252)" fill="#426f77"/>
    <rect id="長方形_1213" data-name="長方形 1213" width="355" height="88" transform="translate(80 235)" fill="#fff"/>
    <g id="グループ_4169" data-name="グループ 4169" transform="translate(-64.129 -439.737)">
      <path id="パス_2993" data-name="パス 2993" d="M228.34,714.082c-.529.393-.845.6-1.138.847-2.7,2.238-5.373,4.513-8.105,6.712a45.249,45.249,0,0,1-9.481,5.734,19.461,19.461,0,0,1-7.019,1.452,5.3,5.3,0,0,1-1.786-.187c-4.41-1.278-8.44-3.157-11.1-7.166a19.593,19.593,0,0,0-1.307-1.554,20.142,20.142,0,0,0-.943,2.291c-1.321,4.929-2.783,9.831-3.836,14.817-.743,3.514-.929,7.147-1.328,10.73a5.7,5.7,0,0,0,.877,3.733,1.38,1.38,0,0,1-.015,1.681,1.805,1.805,0,0,1-1.855.715,15,15,0,0,1-1.722-.521,2.231,2.231,0,0,1-1.436-1.425,12.79,12.79,0,0,1-.987-5.875c.167-2.276.087-4.6.953-6.8a7.694,7.694,0,0,0,.285-1.775,85.043,85.043,0,0,1,1.924-8.772c1.03-4.169,2.715-8.165,3.251-12.465a9.347,9.347,0,0,1,.8-2.572,13.448,13.448,0,0,0,1.07-4.65,52.91,52.91,0,0,1,3.378-14.263,17.824,17.824,0,0,1,1.678-3.513,9.767,9.767,0,0,0,1.415-4.221,17.6,17.6,0,0,1,.489-2.655,2.066,2.066,0,0,1,3.118-1.164c2.214,1.5,2.845,2.71,2.137,5.332a3.354,3.354,0,0,0,.256,3.109,1.347,1.347,0,0,1-.356,1.89,5.96,5.96,0,0,0-2.028,3.236q-1.693,5.289-3.418,10.567a13.274,13.274,0,0,0,3.953,14.73c2.09,1.868,4.71,2.155,7.352,1.775a18.7,18.7,0,0,0,7.024-2.537,65.731,65.731,0,0,0,12.328-9.5,11.96,11.96,0,0,1,1.8-1.587,16.611,16.611,0,0,0,2.423-2.216,14.769,14.769,0,0,0,4.269-8.08,38.277,38.277,0,0,1,1.858-5.7c.51-1.406,1.059-2.787,1.471-4.238a46.539,46.539,0,0,1,2.276-5.871,2.966,2.966,0,0,1,3.868-1.282,6.41,6.41,0,0,1,3.69,6.073,12.918,12.918,0,0,1-.51,3.854,24.271,24.271,0,0,1-4.621,9.016c-1.022,1.234-2.041,2.475-3,3.76a5.187,5.187,0,0,0-.934,1.842,74.241,74.241,0,0,0-1.742,10.654c-.109,1.4-.139,2.8-.295,4.192a68.9,68.9,0,0,0,.526,17.952c.09.594.177,1.19.225,1.789a4.248,4.248,0,0,1-.035,1.184,1.741,1.741,0,0,1-2.993.98,3.317,3.317,0,0,1-.893-1.174,24.32,24.32,0,0,1-1.932-8.125,23.8,23.8,0,0,0-.275-2.683,9.756,9.756,0,0,1,.04-4.455,3.314,3.314,0,0,0,.079-1.169,47.816,47.816,0,0,1,.228-9.842A23.568,23.568,0,0,0,228.34,714.082Z" transform="translate(0 0.204)" fill="#333"/>
      <path id="パス_2994" data-name="パス 2994" d="M232.151,714.523c.379.1,1.072.226,1.736.443a3.21,3.21,0,0,1,2.386,3.394,16.26,16.26,0,0,0,.312,4.775,10.342,10.342,0,0,0,1,2.811c.933,1.722,2.428,1.669,3.433-.065a6.688,6.688,0,0,0,.551-1.383c.891-2.865,1.785-5.728,2.639-8.6a2.455,2.455,0,0,1,3.123-2.006c.2.036.383.117.577.168,3.1.814,3.619,1.695,2.658,4.729a47.118,47.118,0,0,1-1.841,5.077c-1.676,3.743-3.486,7.424-5.2,11.15a133.5,133.5,0,0,1-7.569,13.649c-1.871,3.07-3.847,6.079-5.821,9.087-1.7,2.592-3.424,5.174-5.22,7.7-1.158,1.629-2.441,3.173-3.713,4.718-.977,1.185-2.433,1.683-3.726,2.4-.6.336-1.312.484-1.915.819-.542.3-1.185.76-1.609.246s.337-1.031.612-1.459c3.3-5.133,6.679-10.213,9.993-15.336.923-1.426,1.708-2.942,2.55-4.421,2.377-4.175,4.828-8.311,7.093-12.546,1.222-2.284,2.131-4.736,3.166-7.119a.816.816,0,0,0-.3-1.052c-.66-.452-1.361-.845-2.017-1.3a11.055,11.055,0,0,1-4.576-6.133c-.626-2.214-1.229-4.436-1.79-6.668a2.5,2.5,0,0,1,.9-2.684A2.818,2.818,0,0,1,232.151,714.523Z" transform="translate(9.331 8.147)" fill="#333"/>
      <path id="パス_2995" data-name="パス 2995" d="M386.938,720.079c.418-.783.766-1.5,1.171-2.181.662-1.115,1.355-2.214,2.046-3.311.586-.932,1.222-1.833,1.774-2.783a20.851,20.851,0,0,1,4.262-5.02c1.807-1.612,3.4-1.7,5.494-.478a8.554,8.554,0,0,1,2.948,2.948,4.574,4.574,0,0,1,.477,4.044c-.2.567-.449,1.114-.675,1.671a2.37,2.37,0,0,0,.053,2.293,8.724,8.724,0,0,1,.814,3.482,1.263,1.263,0,0,0,1.5,1.124,28.709,28.709,0,0,0,7.6-1.672c1.039-.361,2.071-.749,3.131-1.034a1.227,1.227,0,0,1,1.436,1.415c-.049.192-.173.37-.2.564a4.756,4.756,0,0,1-3.565,4.007c-1.894.633-3.667,1.575-5.638,2.043-1.733.411-3.346.534-4.883-.561a12.207,12.207,0,0,0-1.34-.666c-.769-.415-1.346-1.511-2.3-1.155-.66.247-1.091,1.1-1.637,1.666-1.521,1.593-3.055,3.175-4.572,4.774-1.715,1.807-1.722,1.755-3.841,2.27a3.985,3.985,0,0,1-3.883-1,13.248,13.248,0,0,1-1.952-2.26,4.014,4.014,0,0,1-.671-3.428,7.891,7.891,0,0,0,.171-1.785.75.75,0,0,0-.946-.825,13.4,13.4,0,0,0-2.014.579c-2.807,1.237-5.058.026-7.174-1.627-.936-.73-1.735-1.634-2.63-2.492-.818.991-1.542,1.942-2.342,2.823-1.474,1.624-2.922,3.28-4.512,4.786a5.09,5.09,0,0,1-6.378.6,26.933,26.933,0,0,1-2.6-2.033,1.288,1.288,0,0,0-1.654-.1,22.355,22.355,0,0,1-4.544,2.3,5.7,5.7,0,0,1-6.347-1.352c-.73-.68-1.431-1.39-2.289-2.225-.3.493-.559.875-.785,1.276a34.931,34.931,0,0,1-5.452,7.143c-1.934,1.989-2.939,2.038-5.259.526a5.889,5.889,0,0,1-2.777-3.748c-.261-1.18-.408-1.254-1.395-.993a9.824,9.824,0,0,1-7.262-.993.907.907,0,0,0-1.278.32c-1.715,2.081-3.41,4.179-5.181,6.214-2.616,3.005-5.359,3.059-8.676.469a4.7,4.7,0,0,1-1.75-4.251,8.719,8.719,0,0,1,.7-2.9,25.445,25.445,0,0,1,3.528-6.563,38,38,0,0,0,2.956-4.519,17.507,17.507,0,0,1,4.525-4.75,4.069,4.069,0,0,1,4.522-.385c3.389,1.644,5.194,4.42,4.3,8.609-.229,1.076-.45,2.153-.645,3.236-.1.566.251.892.894.888a7.957,7.957,0,0,0,.9-.024c3.089-.377,3.132-.371,3.729-3.532.372-1.964.616-3.953.872-5.936a4.53,4.53,0,0,1,1.253-2.97,2.348,2.348,0,0,1,2.2-.638,4.525,4.525,0,0,1,3.289,2.335,3.278,3.278,0,0,1,.356,2.588c-.4,1.449-.927,2.867-1.243,4.331-.4,1.851-.643,3.735-.944,5.606-.013.083.06.252.11.26.162.024.4.058.488-.031a27.7,27.7,0,0,0,4.261-6.152c.529-.959.948-1.979,1.459-2.95a13.071,13.071,0,0,0,1.584-3.861,5.526,5.526,0,0,1,1.14-2.065,1.414,1.414,0,0,1,1.855-.522,16.474,16.474,0,0,1,1.651.725,3.421,3.421,0,0,1,1.849,3.473c-.089.691-.385,1.36-.439,2.049-.132,1.692-.217,3.389-.241,5.085a.921.921,0,0,0,1.218.949c1.064-.273,2.113-.6,3.156-.949.665-.219,1.3-.536,1.958-.761a1.927,1.927,0,0,0,1.486-2c-.084-2.981,1.107-5.672,1.893-8.454a3.054,3.054,0,0,1,1.5-1.8,2.027,2.027,0,0,1,2.269-.062c.754.488,1.474,1.032,2.18,1.587a2.182,2.182,0,0,1,.635,2.712,19.41,19.41,0,0,1-.882,1.908,12.044,12.044,0,0,0-.983,6.443,1.172,1.172,0,0,0,.465.677c.094.075.41,0,.542-.112a22.581,22.581,0,0,0,5.109-5.435c.415-.684.9-1.324,1.373-1.973a13.376,13.376,0,0,0,2.422-5.766,10.021,10.021,0,0,1,.2-1.184,2.378,2.378,0,0,1,3.7-1.565,9.5,9.5,0,0,1,2.234,1.948,2.226,2.226,0,0,1,.431,2.249,13.69,13.69,0,0,0-.561,2.639,11.3,11.3,0,0,0-.119,2.988c.393,2.562.654,3.128,3.474,2.852a25.061,25.061,0,0,0,2.954-.48A4.167,4.167,0,0,1,386.938,720.079Zm9.556-4.093a34.709,34.709,0,0,0-5.829,10.128c-.1.293-.467.681.122.929a34.424,34.424,0,0,0,5.442-5.973,5.464,5.464,0,0,0,.745-1.3,1.1,1.1,0,0,0,.03-.814c-.217-.439-.722-.793-.793-1.232A5.666,5.666,0,0,1,396.494,715.986Zm-83.061,4.419c-1.815,2.833-3.365,5.234-4.885,7.652a6.814,6.814,0,0,0-.582,1.363c-.156.442-.258.9-.437,1.538a12.932,12.932,0,0,0,4.754-4.927A7.9,7.9,0,0,0,313.433,720.405Z" transform="translate(31.598 6.025)" fill="#333"/>
      <path id="パス_2996" data-name="パス 2996" d="M271.716,718.693c-1.04,2.352-2.053,4.416-2.874,6.553-1.575,4.112-3.158,8.227-4.51,12.413a39.009,39.009,0,0,0-1.91,9.088,4.283,4.283,0,0,0,.763,3.117,7.755,7.755,0,0,1,.976,2.482,1.551,1.551,0,0,1-.97,1.678,3.321,3.321,0,0,1-1.178.166,6.31,6.31,0,0,1-4.479-3.589,6.608,6.608,0,0,1-.385-2.65c.385-2.463.443-4.952,1.047-7.411.817-3.321,1.878-6.545,3-9.757a14.272,14.272,0,0,1,2.067-4.637,1.828,1.828,0,0,0,.336-.817c.464-2.593,1.7-4.9,2.7-7.288,1.077-2.588,2.3-5.116,3.378-7.7a5.788,5.788,0,0,0,.459-2.317,52.141,52.141,0,0,1,.682-9.278c.344-2.255.537-4.586,1.758-6.629a1.762,1.762,0,0,1,2.2-1.052c.863.2,1.72.427,2.578.641.949-.755.954-1.933,1.292-2.953.281-.85.4-1.753.686-2.6a2.7,2.7,0,0,1,2.376-2.006,2,2,0,0,1,2.049.907,5.144,5.144,0,0,1,.672,5.076,117.205,117.205,0,0,1-7.321,16.783c-.369.71-.662,1.462-1.066,2.151a5.206,5.206,0,0,0-.559,3.438,24.93,24.93,0,0,0,2.083,7.789c2.051,4.463,4.75,5.893,10.333,4.26a7.942,7.942,0,0,0,2.4-1.212c1.934-1.421,3.836-2.891,5.681-4.426,1.61-1.34,3.082-2.84,4.681-4.206a10.282,10.282,0,0,0,3.595-5.737,54.316,54.316,0,0,1,3.682-10.761c1.363-3.119,2.576-6.305,3.9-9.441a2.9,2.9,0,0,1,1.065-1.385,2.127,2.127,0,0,1,2.537.055c.385.317.82.574,1.212.885a3.293,3.293,0,0,1,1.287,3.171,32.148,32.148,0,0,1-1.717,6.989,71.481,71.481,0,0,1-6.19,12.65,11.316,11.316,0,0,0-1.222,3.631,39.321,39.321,0,0,0-.468,9.884,35.064,35.064,0,0,0,2.549,12.581c.08.183.238.358.248.542a3.965,3.965,0,0,1-.056,1.435c-.156.455-1.35.81-1.893.561a6.047,6.047,0,0,1-1.746-1.119,12,12,0,0,1-2.895-4.86,44.325,44.325,0,0,1-1.593-9.135,6.555,6.555,0,0,1,.2-1.778,3.937,3.937,0,0,0-.513-2.673c-2.249,1.94-4.429,3.8-6.577,5.687a17.629,17.629,0,0,1-5.046,3.221c-3.872,1.547-7.664,1.854-11.464-.537a15.679,15.679,0,0,1-6.619-7.5C272.647,720.341,272.223,719.666,271.716,718.693Z" transform="translate(20.337 0.596)" fill="#333"/>
      <path id="パス_2997" data-name="パス 2997" d="M397.086,729.992q.263-1.919.527-3.837a1.063,1.063,0,0,0,.034-.3c-.5-3.136.6-6.142.77-9.228a22.888,22.888,0,0,1,1.263-6.449,37.24,37.24,0,0,0,1.194-4.648,129.955,129.955,0,0,1,5.292-17.207c.516-1.406,1.018-2.818,1.59-4.2a4.78,4.78,0,0,1,.958-1.49,2.186,2.186,0,0,1,3.424-.059c.144.137.256.309.4.448a3.88,3.88,0,0,1,.806,4.944,61.96,61.96,0,0,0-3.084,7.47,124.886,124.886,0,0,0-5.782,20.478,71.287,71.287,0,0,0-1.388,11c-.053,1.689-.391,3.368-.391,5.08a30.626,30.626,0,0,0,1.412,9.461,6.441,6.441,0,0,1,.4,2.948,1.125,1.125,0,0,1-1.318.922c-1.585-.434-3.032-1.086-3.73-2.724a13.468,13.468,0,0,1-.939-2.52q-.751-3.669-1.308-7.377a18.19,18.19,0,0,1-.021-2.693Z" transform="translate(55.926 0)" fill="#333"/>
    </g>
  </g>
</svg>
