<svg xmlns="http://www.w3.org/2000/svg" width="280" height="121.545" viewBox="0 0 280 121.545">
  <g id="works_title" transform="translate(-72 -219.029)">
    <rect id="長方形_1214" data-name="長方形 1214" width="256" height="88" transform="translate(72 227)" fill="#6ca1aa"/>
    <rect id="長方形_1215" data-name="長方形 1215" width="256" height="88" transform="translate(96 252)" fill="#426f77"/>
    <rect id="長方形_1213" data-name="長方形 1213" width="256" height="88" transform="translate(80 235)" fill="#fff"/>
    <g id="グループ_4168" data-name="グループ 4168" transform="matrix(0.914, 0.407, -0.407, 0.914, -4516.728, -2876.196)">
      <path id="パス_2827" data-name="パス 2827" d="M5550.331,1048.793c0,3.268-.1,5.726.019,8.173.383,7.955-.553,15.852-.965,23.771-.386,7.444-6.622,7.6-10.493,4.85a28.936,28.936,0,0,1-3.121-2.84c-5.4-5.193-9.213-11.555-13.144-17.839a95.265,95.265,0,0,1-9.637-21.712c-1.876-5.865-3.434-11.832-5.118-17.759-1.059-3.728-2.089-7.464-3.132-11.2-.341-1.222-.608-2.475.556-3.4a3.485,3.485,0,0,1,3.95.232,7.412,7.412,0,0,1,3.219,4.646q1.3,7.013,2.893,13.972c2.653,11.548,6.009,22.848,12.077,33.163,3.315,5.637,6.771,11.169,11.384,15.868.708.722,1.554,1.311,2.468,2.071a13.1,13.1,0,0,0,2.362-7.707c.338-7.043.5-14.1.577-21.148.062-5.465-.182-10.933-.141-16.4.025-3.357.16-6.687-.687-9.992-.444-1.735.273-3.032,1.55-3.455,1.8-.595,4.031-.095,4.715,1.318a22.207,22.207,0,0,1,1.5,4.481c.864,3.6,1.44,7.279,2.471,10.827a44.144,44.144,0,0,0,3.461,8.826,23.124,23.124,0,0,0,4.744,5.6,3.044,3.044,0,0,0,4.912-.994,25.285,25.285,0,0,0,2.229-6.986,47.059,47.059,0,0,0,.265-9.494c-.347-5.093-1.075-10.159-1.588-15.242-.854-8.463-3.21-16.6-5.228-24.821-.628-2.561-1.271-5.166-.063-7.773.706-1.522,2.067-2.261,3.385-1.543a3.235,3.235,0,0,1,1.629,1.853c1.806,11.662,5.6,22.943,6.539,34.776.444,5.62,1.279,11.208,1.871,16.817a38.311,38.311,0,0,1-.874,11.56c-1.458,7.315-6.716,9.228-13.084,7.465a13.419,13.419,0,0,1-6.163-3.971C5554,1053,5552.412,1051.136,5550.331,1048.793Z" transform="translate(0 -48.598)" fill="#333"/>
      <path id="パス_2828" data-name="パス 2828" d="M5867.557,953.737c3.9,1.469,7.178.841,10.368-.168,2.683-.848,5.263-2.017,7.888-3.046a10.857,10.857,0,0,1,2.449-.914,2.341,2.341,0,0,1,1.861.61,2.214,2.214,0,0,1,.145,1.942,10.277,10.277,0,0,1-4.34,4.49c-4.5,2.548-9.12,4.638-14.492,4.264a30.881,30.881,0,0,0-3.662.165c-.175.688-.5,1.227-.392,1.652,1.008,3.907,2,7.82,4.284,11.258a19.251,19.251,0,0,1,1.9,3.735,1.85,1.85,0,0,1-1.853,2.514,4.89,4.89,0,0,1-2.928-.7,12.329,12.329,0,0,1-3-3.585,30.721,30.721,0,0,1-2.388-5.866c-3.2-10.81-6.307-21.644-9.441-32.472-1.274-4.4-2.394-8.852-3.851-13.191a62.4,62.4,0,0,0-3.331-7.148,23.318,23.318,0,0,1-1.258-2.3,2.988,2.988,0,0,1,3.214-4.117,6.018,6.018,0,0,1,5.621,4.11c1.393,3.988,2.878,7.96,3.966,12.035,1.362,5.1,2.349,10.292,3.531,15.437a28.324,28.324,0,0,0,.984,2.768c1.288-1.052,2.164-1.837,3.109-2.526a47.149,47.149,0,0,1,6.044-4.208c4.086-2.085,7.895-.937,11.292,1.8,1.648,1.326,1.3,3.286-.667,4.2-1.458.678-2.9,1.242-4.456.035a2.192,2.192,0,0,0-1.952-.148C5872.447,946.4,5869.3,949.052,5867.557,953.737Z" transform="translate(-220.378 0)" fill="#333"/>
      <path id="パス_2829" data-name="パス 2829" d="M6005.6,975.714c-1.649-2.147-3.727-3.161-5.662-4.352s-3.978-2.284-5.862-3.577a24.285,24.285,0,0,1-4.047-3.381c-3.432-3.685-2.236-8.1,2.627-9.272,4.366-1.052,8.727-.957,12.862,1.291a9.828,9.828,0,0,1,4.485,5,2.136,2.136,0,0,1-1.785,3.1c-2.028.359-3.891.149-5.217-1.658-.984-1.339-2.115-2.5-3.918-2.139a3.667,3.667,0,0,0-2.071,1.3c-.213.288.231,1.432.688,1.779,1.393,1.059,2.938,1.916,4.42,2.857,2.673,1.7,5.385,3.336,7.994,5.128a11.9,11.9,0,0,1,2.576,2.609,4.67,4.67,0,0,1,.528,5c-2.838,6.266-11.752,10.03-18.322,5.324a6.811,6.811,0,0,1-1.688-1.959,1.784,1.784,0,0,1,1.34-2.388,14.017,14.017,0,0,1,2.075.274C6000.8,981.366,6003.157,980.123,6005.6,975.714Z" transform="translate(-312.68 -28.218)" fill="#333"/>
      <path id="パス_2830" data-name="パス 2830" d="M5732.243,1094.5a40.97,40.97,0,0,1,.455-5.3c.653-3.236,3.1-4.768,6.287-3.939,1.494.388,3.25.927,4.212,2,4.247,4.748,7.984,9.852,9.286,16.323,1.135,5.641-1.221,8.4-6.894,8.355a13.1,13.1,0,0,1-12.808-11.161C5732.469,1098.875,5732.44,1096.922,5732.243,1094.5Zm8.977.086c-.447.229-.938.329-.981.528a15.9,15.9,0,0,0,.455,8.262,3.791,3.791,0,0,0,1.115,1.74,2.826,2.826,0,0,0,1.823.571c.359-.023.876-.65.97-1.081a6.493,6.493,0,0,0,.116-2.58A15.528,15.528,0,0,0,5741.22,1094.59Z" transform="translate(-147.279 -112.627)" fill="#333"/>
      <path id="パス_2831" data-name="パス 2831" d="M5792.126,1049.994c2.234-2.954,4.007-5.578,6.069-7.948a8.187,8.187,0,0,1,11.414-.946,1.59,1.59,0,0,1-.38,2.641,4.452,4.452,0,0,1-.968.421c-4.648,1.132-7,4.45-8.36,8.727-.108.336-.251.66-.367.993-1.488,4.284-2.162,8.458.3,12.749,1.355,2.36-.2,4.228-2.862,3.9-3.646-.445-5.659-2.383-6.416-5.923a33.807,33.807,0,0,0-1.55-4.993c-.819-2.135-1.946-4.163-2.643-6.332-.69-2.147.771-3.722,3.105-3.617C5790.344,1049.707,5791.211,1049.878,5792.126,1049.994Z" transform="translate(-182.159 -83.048)" fill="#333"/>
    </g>
  </g>
</svg>
