<svg xmlns="http://www.w3.org/2000/svg" width="253.984" height="97.361" viewBox="0 0 253.984 97.361">
  <g id="contact_title" transform="translate(-5447.484 -2751.985) rotate(16)">
    <path id="パス_2836" data-name="パス 2836" d="M6078.149,1266.028c8.7,1.456,14.648,7.966,14.739,16.5a14.88,14.88,0,0,1-6.113,12.374,8.351,8.351,0,0,1-7.859,1.165,25.971,25.971,0,0,1-3.723-1.8,26.618,26.618,0,0,0-2.293,2.08,91.871,91.871,0,0,1-13.353,12.292,45.207,45.207,0,0,1-16.142,8.114,22.172,22.172,0,0,1-18-2.583,17.954,17.954,0,0,1-7.562-9.165c-2.338-6.23-2.2-12.612-.962-19.006a103.533,103.533,0,0,1,12.576-32.758,72.849,72.849,0,0,1,5.558-7.519,7.558,7.558,0,0,1,6.856-2.786,12.264,12.264,0,0,1,9.048,4.6,3.254,3.254,0,0,1,.543,4.052,3.212,3.212,0,0,1-3.22,1.672,2.855,2.855,0,0,1-3.026-2.6,7.727,7.727,0,0,0-.852-1.717c-1.039.447-2.236.624-2.9,1.315a35.4,35.4,0,0,0-4.887,5.892,100.132,100.132,0,0,0-12.626,31.545,41.7,41.7,0,0,0-.179,15.351c.9,5.6,3.883,8.156,9.591,8.856a18.049,18.049,0,0,0,8.673-.973,57.5,57.5,0,0,0,8.991-4.122c6.5-3.848,12.185-8.828,17.935-13.686a8.61,8.61,0,0,0,3.047-6.714,89.438,89.438,0,0,1,1.9-13.6C6074.62,1269.289,6075.161,1268.857,6078.149,1266.028Zm2.259,23.053c.6-.188,1.214-.2,1.54-.513,3.541-3.4,4.227-7.476,2.562-11.983a2.243,2.243,0,0,0-1.484-1.315,2.066,2.066,0,0,0-1.552,1.151,24.463,24.463,0,0,0-1.8,11.2A5.036,5.036,0,0,0,6080.408,1289.081Z" transform="translate(0 -100.524)" fill="#426f77"/>
    <path id="パス_2837" data-name="パス 2837" d="M6304.718,1201.633a16.173,16.173,0,0,0-3.7,1.277c-2.285,1.52-4.424,3.26-6.6,4.938-3.472,2.675-6.89,2.447-9.754-.68a2.635,2.635,0,0,1,.122-3.915,12.406,12.406,0,0,1,2.257-1.542c4.337-2.374,8.706-4.69,13.035-7.077,1.594-.879,3.11-1.9,4.549-2.782.559-3.913,1.061-7.539,1.607-11.159a8.477,8.477,0,0,1,.6-2.087,2.3,2.3,0,0,1,2.844-.99c2.107,1.076,3.473,2.685,3.411,5.186-.036,1.428-.15,2.854-.225,4.215,3.542,1.253,3.943-2.05,5.757-3.587a13.788,13.788,0,0,1,2.169,1.626c2.716,3.042,2.489,4.789-.986,7.085-1.834,1.212-3.811,2.207-5.7,3.345a3.62,3.62,0,0,0-1.992,3.094c-.236,10.158.5,20.189,3.994,29.842a15.171,15.171,0,0,0,1.5,2.46c1.367-.378,2.549-.786,3.764-1.021a2.284,2.284,0,0,1,2.749,2.009c.5,3.344-1.469,5.389-4.744,4.931a9.9,9.9,0,0,1-7.179-4.643,38.955,38.955,0,0,1-3.609-7.385c-2.238-6.08-2.983-12.477-3.539-18.892C6304.94,1204.619,6304.852,1203.354,6304.718,1201.633Z" transform="translate(-169.249 -59.153)" fill="#426f77"/>
    <path id="パス_2838" data-name="パス 2838" d="M6555.279,1135.152c3.869,2.122,6.224-1.62,9.11-.684a2.989,2.989,0,0,1,.457,3.669c-2.187,4.694-6.68,5.9-10.892,2.963a13.8,13.8,0,0,1-4.8-5.9,55.706,55.706,0,0,1-5.128-20.129c-.111-2.718,0-5.494-1.225-7.887-1.8-.933-3.051.126-4.291.729a18.883,18.883,0,0,0-2.573,2.042c-2.316,1.7-3.723,1.7-5.977.077-3.191-2.3-3.235-4.675.1-6.873a42.072,42.072,0,0,1,5.868-2.936c1.833-.831,3.729-1.521,5.581-2.31a5.976,5.976,0,0,0,1.083-.9c.727-2.844.081-5.945.086-9.024a16.646,16.646,0,0,1,.019-2.713,1.638,1.638,0,0,1,2-1.411,9.224,9.224,0,0,1,2.556.955,78.4,78.4,0,0,1,8.207,4.452,21.674,21.674,0,0,1,4.546,4.654c1.061,1.347.734,2.711-.736,3.819a29.58,29.58,0,0,1-3.761,2.219c-1.587.86-3.205,1.661-5.034,2.6C6550.814,1113.866,6550.027,1125.1,6555.279,1135.152Zm-4.6-40.642c1.683-.412,3.371-.418,3.979-2.557-.783-1.567-2.015-2.631-3.833-1.825-1.431.634-.957,2.156-.79,3.4C6550.053,1093.686,6550.22,1093.827,6550.675,1094.51Z" transform="translate(-323.251)" fill="#426f77"/>
    <path id="パス_2839" data-name="パス 2839" d="M6398.646,1246.9c-1.026,1.253-1.9,2.373-2.828,3.44-2.52,2.888-4.805,5.983-8.183,8.045a5.967,5.967,0,0,1-5.712.5c-5.543-2.124-8.2-6.369-6.915-12.081a38.862,38.862,0,0,1,7.654-15.664c2.049-2.586,4.31-3.171,7.322-1.992a20.694,20.694,0,0,1,4.248,2.445,9.319,9.319,0,0,0,3.833,1.771c4.137.789,5.163,2.411,5.342,6.916a18.411,18.411,0,0,0,.14,2.187,2.743,2.743,0,0,0,3.03,2.54c1.633-.1,3.252-.418,4.891-.642a2.551,2.551,0,0,1,1.538,3.123,3.559,3.559,0,0,1-2.545,2.619,8.222,8.222,0,0,1-7.4-.5C6401.64,1248.816,6400.286,1247.909,6398.646,1246.9Zm-3.492-10.03-5.611-.81a26.082,26.082,0,0,0-6.814,11.96c-.333,1.12-.731,2.457.528,3.407C6388.377,1248.842,6392.591,1243.733,6395.154,1236.865Z" transform="translate(-226.651 -91.455)" fill="#426f77"/>
    <path id="パス_2840" data-name="パス 2840" d="M6246.691,1275.881c4.354-.172,6.941,1.474,8.2,5.37a74.289,74.289,0,0,0,2.916,7.112,4.71,4.71,0,0,0,5.388,2.887c1.8-.25,3.55-.891,5.35-1.19.625-.1,1.678.093,1.926.513a3.3,3.3,0,0,1,.333,2.473,4.449,4.449,0,0,1-3.143,2.846c-3.482.937-6.936,1.066-10.07-1.028-2.254-1.506-4.363-3.229-6.859-5.1-.562,1.258-1.087,2.356-1.547,3.482-1.178,2.882-2.182,5.844-3.521,8.647-1.679,3.51-4.353,4.125-7.688,2.046a7.931,7.931,0,0,1-3.863-4.481c-1.16-4.238-2.25-8.5-3.24-12.777a2.17,2.17,0,0,1,2.76-2.452c3.263.794,5.78,2.352,6.073,6.125a25.435,25.435,0,0,0,.543,2.626c2.379-2.688,2.8-5.624,3.719-8.3C6244.913,1281.926,6245.7,1279.114,6246.691,1275.881Z" transform="translate(-135.74 -121.347)" fill="#426f77"/>
    <path id="パス_2841" data-name="パス 2841" d="M6492.792,1208.259c-2.072,2.922-3.527,5.562-2.871,9.283,7.07-1.739,11.2-7.089,16.013-11.241a1.809,1.809,0,0,1,2.219,1.94,7.93,7.93,0,0,1-1.463,5.188,36.9,36.9,0,0,1-9.1,8.711c-5.018,3.327-11.06,1.925-14.362-3.106a8.338,8.338,0,0,1-1.12-6.34,25.558,25.558,0,0,1,5.267-11.365c1.746-2.184,3.036-2.356,5.834-1.445a10.213,10.213,0,0,1,5.986,4.545,2.434,2.434,0,0,1-1.752,3.745,17.006,17.006,0,0,1-2.193.086C6494.527,1208.269,6493.8,1208.259,6492.792,1208.259Z" transform="translate(-294.412 -73.003)" fill="#426f77"/>
  </g>
</svg>
