<svg id="design_image" xmlns="http://www.w3.org/2000/svg" width="171.33" height="159.27" viewBox="0 0 171.33 159.27">
  <path id="パス_2893" data-name="パス 2893" d="M171.33,70.2H0V0H171.33ZM.521,69.68H170.809V.521H.521Z" fill="#3f3d56"/>
  <path id="パス_2894" data-name="パス 2894" d="M60.729,66.228H49.962a37.655,37.655,0,0,1,0-12.838H60.729A23.1,23.1,0,0,0,60.729,66.228Z" transform="translate(-36.53 -39.472)" fill="#ff6584"/>
  <path id="パス_2895" data-name="パス 2895" d="M128.586,87.206h10.767a37.654,37.654,0,0,0,0-12.838H128.586A23.1,23.1,0,0,1,128.586,87.206Z" transform="translate(-95.066 -54.982)" fill="#e6e6e6"/>
  <path id="パス_2896" data-name="パス 2896" d="M394.058,131.466h14.631a.391.391,0,0,0,0-.782H394.058a.391.391,0,0,0,0,.782Z" transform="translate(-291.054 -96.617)" fill="#e6e6e6"/>
  <path id="パス_2897" data-name="パス 2897" d="M446.544,117.664l2.286,2.087a6.613,6.613,0,0,1,1.143,1.043c.336.645-.025.5-.6.721a12.867,12.867,0,0,0-3.849,2.39c-.378.333.176.885.553.553a11.95,11.95,0,0,1,3.5-2.189c.461-.182,1.336-.289,1.555-.839.268-.672-.586-1.168-.991-1.538L447.1,117.11c-.371-.339-.926.213-.553.553Z" transform="translate(-329.289 -86.503)" fill="#e6e6e6"/>
  <path id="パス_2898" data-name="パス 2898" d="M80.586,158.206H91.353a37.654,37.654,0,0,0,0-12.838H80.586A23.1,23.1,0,0,1,80.586,158.206Z" transform="translate(-59.579 -107.473)" fill="#5d8e96"/>
  <path id="パス_2899" data-name="パス 2899" d="M401.586,62.206h10.767a37.656,37.656,0,0,0,0-12.838H401.586A23.1,23.1,0,0,1,401.586,62.206Z" transform="translate(-296.899 -36.499)" fill="#5d8e96"/>
  <path id="パス_2900" data-name="パス 2900" d="M262.693,87.858V56.172l-2.867-.639V90.725l21.637-.221-.073-2.837Z" transform="translate(-192.093 -41.056)" fill="#f2f2f2"/>
  <path id="パス_2901" data-name="パス 2901" d="M278.893,81.654H252.825V39.684h26.068Zm-25.547-.521h25.026V40.205H253.346Z" transform="translate(-186.918 -29.339)" fill="#3f3d56"/>
  <rect id="長方形_1223" data-name="長方形 1223" width="4.222" height="0.521" transform="translate(68.253 12.952)" fill="#3f3d56"/>
  <rect id="長方形_1224" data-name="長方形 1224" width="4.222" height="0.521" transform="translate(68.253 14.255)" fill="#3f3d56"/>
  <rect id="長方形_1225" data-name="長方形 1225" width="4.222" height="0.521" transform="translate(68.253 15.559)" fill="#3f3d56"/>
  <rect id="長方形_1226" data-name="長方形 1226" width="18.038" height="0.521" transform="translate(70.339 37.977)" fill="#3f3d56"/>
  <rect id="長方形_1227" data-name="長方形 1227" width="18.038" height="0.521" transform="translate(70.339 40.845)" fill="#3f3d56"/>
  <rect id="長方形_1228" data-name="長方形 1228" width="18.038" height="0.521" transform="translate(70.339 43.712)" fill="#3f3d56"/>
  <path id="パス_2902" data-name="パス 2902" d="M332.65,52.334a1.825,1.825,0,1,1,1.825-1.825h0A1.827,1.827,0,0,1,332.65,52.334Zm0-3.128a1.3,1.3,0,1,0,1.3,1.3A1.3,1.3,0,0,0,332.65,49.205Z" transform="translate(-244.585 -35.993)" fill="#3f3d56"/>
  <path id="パス_2903" data-name="パス 2903" d="M287.334,88.675H268.825V76.684h18.508Zm-17.987-.521h17.466V77.205H269.346Z" transform="translate(-198.747 -56.694)" fill="#3f3d56"/>
  <rect id="長方形_1229" data-name="長方形 1229" width="0.521" height="21.333" transform="translate(70.199 20.471) rotate(-57.475)" fill="#3f3d56"/>
  <rect id="長方形_1230" data-name="長方形 1230" width="21.333" height="0.521" transform="translate(70.199 31.501) rotate(-32.524)" fill="#3f3d56"/>
  <path id="パス_2904" data-name="パス 2904" d="M516.693,87.858V56.172l-2.868-.639V90.725l21.637-.221-.073-2.837Z" transform="translate(-379.88 -41.056)" fill="#f2f2f2"/>
  <path id="パス_2905" data-name="パス 2905" d="M533.893,79.654H507.825V37.684h26.068Zm-25.547-.521h25.025V38.205H508.346Z" transform="translate(-375.444 -27.86)" fill="#3f3d56"/>
  <rect id="長方形_1231" data-name="長方形 1231" width="4.222" height="0.521" transform="translate(134.728 12.43)" fill="#3f3d56"/>
  <rect id="長方形_1232" data-name="長方形 1232" width="4.222" height="0.521" transform="translate(134.728 13.734)" fill="#3f3d56"/>
  <rect id="長方形_1233" data-name="長方形 1233" width="4.222" height="0.521" transform="translate(134.728 15.037)" fill="#3f3d56"/>
  <path id="パス_2906" data-name="パス 2906" d="M587.65,50.334a1.825,1.825,0,1,1,1.825-1.825A1.825,1.825,0,0,1,587.65,50.334Zm0-3.128a1.3,1.3,0,1,0,1.3,1.3A1.3,1.3,0,0,0,587.65,47.205Z" transform="translate(-433.11 -34.514)" fill="#3f3d56"/>
  <path id="パス_2907" data-name="パス 2907" d="M542.334,86.675H523.825V74.684h18.509Zm-17.987-.521h17.466V75.205H524.346Z" transform="translate(-387.273 -55.215)" fill="#3f3d56"/>
  <rect id="長方形_1234" data-name="長方形 1234" width="0.521" height="21.333" transform="matrix(0.538, -0.843, 0.843, 0.538, 136.673, 19.949)" fill="#3f3d56"/>
  <rect id="長方形_1235" data-name="長方形 1235" width="21.333" height="0.521" transform="matrix(0.843, -0.538, 0.538, 0.843, 136.672, 30.979)" fill="#3f3d56"/>
  <path id="パス_2908" data-name="パス 2908" d="M542.334,146.675H523.825V134.684h18.509Zm-17.987-.521h17.466V135.205H524.346Z" transform="translate(-387.273 -99.574)" fill="#3f3d56"/>
  <rect id="長方形_1236" data-name="長方形 1236" width="0.521" height="21.333" transform="matrix(0.538, -0.843, 0.843, 0.538, 136.673, 35.59)" fill="#3f3d56"/>
  <rect id="長方形_1237" data-name="長方形 1237" width="21.333" height="0.521" transform="matrix(0.843, -0.538, 0.538, 0.843, 136.672, 46.62)" fill="#3f3d56"/>
  <path id="パス_2909" data-name="パス 2909" d="M287.586,195.206h10.767a37.653,37.653,0,0,0,0-12.838H287.586A23.1,23.1,0,0,1,287.586,195.206Z" transform="translate(-212.617 -134.828)" fill="#5d8e96"/>
  <g id="グループ_4160" data-name="グループ 4160" transform="translate(26.92 35.448)">
    <circle id="楕円形_30" data-name="楕円形 30" cx="7.629" cy="7.629" r="7.629" transform="matrix(0.48, -0.877, 0.877, 0.48, 12.646, 19.257)" fill="#ffb8b8"/>
    <circle id="楕円形_31" data-name="楕円形 31" cx="6.749" cy="6.749" r="6.749" transform="translate(4.29)" fill="#2f2e41"/>
    <path id="パス_2910" data-name="パス 2910" d="M111.961,159.1a6.75,6.75,0,1,0,13.166,2.768,6.75,6.75,0,0,1-13.166-2.768Z" transform="translate(-109.487 -153.071)" fill="#2f2e41"/>
    <path id="パス_2911" data-name="パス 2911" d="M169.915,170a7.98,7.98,0,1,1-4.762-6.424c1.333-1.075,2.985-.742,4.329.393,1.519,1.283,1.97,2.164,3.148,4.273C171.472,168.406,171.074,169.839,169.915,170Z" transform="translate(-140.778 -155.897)" fill="#2f2e41"/>
    <path id="パス_2912" data-name="パス 2912" d="M247.372,541.834l5.15-1.5,2.249,13.942-3.489,1.013Z" transform="translate(-209.806 -434.929)" fill="#ffb8b8"/>
    <path id="パス_2913" data-name="パス 2913" d="M270.438,588.853l.148.51h0l-10.967,3.186h0l-1.231-4.237h0l7.24-2.1A3.881,3.881,0,0,1,270.438,588.853Z" transform="translate(-217.952 -468.727)" fill="#2f2e41"/>
    <path id="パス_2914" data-name="パス 2914" d="M124.035,544.261H129.4l-1.729,14.016h-3.634Z" transform="translate(-118.621 -437.829)" fill="#ffb8b8"/>
    <path id="パス_2915" data-name="パス 2915" d="M128.589,594.043a3.881,3.881,0,0,1,3.881,3.881v.532H121.05v-4.412h7.539Z" transform="translate(-116.415 -474.634)" fill="#2f2e41"/>
    <path id="パス_2916" data-name="パス 2916" d="M138.123,369.379a3,3,0,0,1-1.407-4l1.016-9.565,5.061-2.163-1.887,10.422a3,3,0,0,1-2.783,5.3Z" transform="translate(-127.778 -296.909)" fill="#ffb8b8"/>
    <path id="パス_2917" data-name="パス 2917" d="M138.26,277.562l4.983,1.012,2.308-16.823.008-.017,7.31-16.381c0-.015.883-2.8-.059-4.611a2.692,2.692,0,0,0-1.663-1.356,4.008,4.008,0,0,0-4.82,1.544l-5.938,18.026Z" transform="translate(-129.138 -212.249)" fill="#5d8e96"/>
    <path id="パス_2918" data-name="パス 2918" d="M140.386,389.577l-5.956-26.5-8.423-17.717-9.133,43.6-13.606-1.512L115.747,341.4c-.195-.7-2.923-11.217,5.359-16.681l1.432-4.814,12.3,2.867-.149,11.487,10.362,23.685,8.937,27.405Z" transform="translate(-103.268 -271.956)" fill="#2f2e41"/>
    <path id="パス_2919" data-name="パス 2919" d="M179.994,259.941l-12.708-1.21.3-7.793c-.454-.812-6.43-11.709-2.489-15.675l1.2-1.793.027-.015c.048-.027,4.888-2.66,9.058,2.7a36.77,36.77,0,0,0,3.069,3.393c2.673,2.7,4.44,4.484,2,9.17Z" transform="translate(-147.99 -207.549)" fill="#5d8e96"/>
    <path id="パス_2920" data-name="パス 2920" d="M185.735,369.334a3,3,0,0,1-2.373-3.511l-1.437-9.511,4.349-3.373.812,10.56a3,3,0,0,1-1.35,5.835Z" transform="translate(-161.42 -296.382)" fill="#ffb8b8"/>
    <path id="パス_2921" data-name="パス 2921" d="M176.579,275.984l-2.686-18.8,1.191-19.008a4.322,4.322,0,0,1,4.539-2.917,2.943,2.943,0,0,1,2.134.977c1.442,1.59,1.3,4.525,1.289,4.649l-2.926,17.694,2.053,17.1Z" transform="translate(-155.482 -209.371)" fill="#5d8e96"/>
  </g>
</svg>
