<svg xmlns="http://www.w3.org/2000/svg" width="149.614" height="159.328" viewBox="0 0 149.614 159.328">
  <g id="direction_image" transform="translate(-1055.754)">
    <path id="パス_2842" data-name="パス 2842" d="M1208.052,321.641H1078.646a2.072,2.072,0,0,0,0,4.144h3.665v49.563a2.072,2.072,0,0,0,4.144,0l.032-49.563h113.438v49.563a2.072,2.072,0,0,0,4.144,0V326.877l.6-1.093h3.381a2.072,2.072,0,0,0,0-4.144Z" transform="translate(-14.184 -219.123)" fill="#ccc"/>
    <path id="パス_2843" data-name="パス 2843" d="M1218.262,266.677h-39.2a2.866,2.866,0,0,1-2.863-2.863V242.233a2.867,2.867,0,0,1,2.863-2.863h39.2a2.867,2.867,0,0,1,2.863,2.863v21.581A2.866,2.866,0,0,1,1218.262,266.677Z" transform="translate(-82.056 -163.074)" fill="#3f3d56"/>
    <path id="パス_2844" data-name="パス 2844" d="M1222.971,246.283h-39.2a.661.661,0,0,0-.66.66v21.582a.661.661,0,0,0,.66.66h39.2a.661.661,0,0,0,.66-.66V246.943A.661.661,0,0,0,1222.971,246.283Z" transform="translate(-86.765 -167.784)" fill="#fff"/>
    <path id="パス_2845" data-name="パス 2845" d="M1240.213,293.592s-4.693-1.081-7.273.9,3.285,6.488,3.285,6.488Z" transform="translate(-120.263 -199.813)" fill="#2f2e41"/>
    <circle id="楕円形_25" data-name="楕円形 25" cx="4.426" cy="4.426" r="4.426" transform="translate(1112.41 82.883)" fill="#a0616a"/>
    <path id="パス_2846" data-name="パス 2846" d="M1231.362,251.109a3.155,3.155,0,0,1,2.909-1.548,6.188,6.188,0,0,1,1.758.492l2.894,1.129a2.345,2.345,0,0,1,1.742,3.565l-1.083,3.376a10.291,10.291,0,0,0-.614-2.231,3.452,3.452,0,0,0-1.5-1.709,4.891,4.891,0,0,0-2.481-.337,4.961,4.961,0,0,0-3.343,1.052,3.473,3.473,0,0,0-.881,1.721,10.382,10.382,0,0,0-.185,1.948,16.146,16.146,0,0,1-1.234-2.644,6.537,6.537,0,0,1-.458-2.14,3.008,3.008,0,0,1,.69-2.036,1.975,1.975,0,0,1,1.986-.625Z" transform="translate(-117.948 -170.014)" fill="#2f2e41"/>
    <path id="パス_2847" data-name="パス 2847" d="M1236.441,296.858a.788.788,0,0,0-.66-.571l-.032-.019-6.608-3.7a.84.84,0,0,0-1.125.289l-1.807,2.926-2.722-2.722-.043-.043a.84.84,0,0,0-1.076-.094l-5.431,3.8c-.01,0-.019,0-.029,0a1.157,1.157,0,0,0-.966,1.081l-.14,2.834h21.687Z" transform="translate(-109.036 -199.241)" fill="#5d8e96"/>
    <path id="パス_2848" data-name="パス 2848" d="M1217.806,315.811h-4.184a.441.441,0,0,0-.44-.441h-1.321a.441.441,0,0,0-.441.441H1210.1a.441.441,0,0,0-.441-.441h-1.321a.441.441,0,0,0-.441.441h-1.321a.441.441,0,0,0-.44-.441h-1.321a.441.441,0,0,0-.441.441h-1.322a.44.44,0,0,0-.44-.441h-1.322a.441.441,0,0,0-.441.441h-1.321a.441.441,0,0,0-.441-.441h-1.321a.441.441,0,0,0-.441.441H1196a.44.44,0,0,0-.44-.441h-1.322a.441.441,0,0,0-.44.441h-1.321a.441.441,0,0,0-.44-.441h-1.321a.441.441,0,0,0-.441.441h-1.322a.44.44,0,0,0-.44-.441H1187.2a.441.441,0,0,0-.44.441h-1.321a.441.441,0,0,0-.441-.441h-1.322a.44.44,0,0,0-.44.441h-1.322a.44.44,0,0,0-.441-.441h-1.321a.441.441,0,0,0-.441.441h-1.321a.441.441,0,0,0-.441-.441h-1.321a.44.44,0,0,0-.44.441H1172a1.321,1.321,0,0,0,0,2.643h45.805a1.321,1.321,0,0,0,0-2.643Z" transform="translate(-78.297 -214.85)" fill="#3f3d56"/>
    <path id="パス_2849" data-name="パス 2849" d="M1096.759,292.672v8.773h-21.98a4.389,4.389,0,1,1-.305-8.773c.1,0,.2,0,.305,0Z" transform="translate(-9.866 -199.386)" fill="#f2f2f2"/>
    <path id="パス_2850" data-name="パス 2850" d="M1096.289,300.951a.338.338,0,0,1-.338.338h-22.575a4.623,4.623,0,0,1,0-9.246h22.575a.337.337,0,1,1,0,.675h-22.575a3.948,3.948,0,0,0,0,7.9h22.575A.337.337,0,0,1,1096.289,300.951Z" transform="translate(-8.857 -198.959)" fill="#5d8e96"/>
    <path id="パス_2851" data-name="パス 2851" d="M1102.816,298.742H1079.2a.067.067,0,1,1,0-.135h23.622a.067.067,0,0,1,0,.135Z" transform="translate(-15.923 -203.43)" fill="#ccc"/>
    <path id="パス_2852" data-name="パス 2852" d="M1102.816,303.824H1079.2a.067.067,0,1,1,0-.135h23.622a.067.067,0,0,1,0,.135Z" transform="translate(-15.923 -206.893)" fill="#ccc"/>
    <path id="パス_2853" data-name="パス 2853" d="M1102.816,308.905H1079.2a.068.068,0,0,1,0-.135h23.622a.068.068,0,0,1,0,.135Z" transform="translate(-15.923 -210.354)" fill="#ccc"/>
    <path id="パス_2854" data-name="パス 2854" d="M1102.816,313.987H1079.2a.067.067,0,1,1,0-.135h23.622a.067.067,0,0,1,0,.135Z" transform="translate(-15.923 -213.816)" fill="#ccc"/>
    <path id="パス_2855" data-name="パス 2855" d="M1083.759,263.672v8.773h-21.981a4.389,4.389,0,1,1-.305-8.773q.153-.005.305,0Z" transform="translate(-1.01 -179.629)" fill="#f2f2f2"/>
    <path id="パス_2856" data-name="パス 2856" d="M1083.289,271.951a.338.338,0,0,1-.337.338h-22.575a4.623,4.623,0,0,1,0-9.246h22.575a.337.337,0,1,1,0,.675h-22.575a3.948,3.948,0,0,0,0,7.9h22.575A.338.338,0,0,1,1083.289,271.951Z" transform="translate(0 -179.202)" fill="#3f3d56"/>
    <path id="パス_2857" data-name="パス 2857" d="M1089.816,269.742H1066.2a.067.067,0,1,1,0-.135h23.622a.067.067,0,0,1,0,.135Z" transform="translate(-7.067 -183.674)" fill="#ccc"/>
    <path id="パス_2858" data-name="パス 2858" d="M1089.816,274.824H1066.2a.067.067,0,1,1,0-.135h23.622a.067.067,0,0,1,0,.135Z" transform="translate(-7.067 -187.136)" fill="#ccc"/>
    <path id="パス_2859" data-name="パス 2859" d="M1089.816,279.905H1066.2a.068.068,0,1,1,0-.135h23.622a.068.068,0,0,1,0,.135Z" transform="translate(-7.067 -190.597)" fill="#ccc"/>
    <path id="パス_2860" data-name="パス 2860" d="M1089.816,284.987H1066.2a.067.067,0,1,1,0-.135h23.622a.067.067,0,0,1,0,.135Z" transform="translate(-7.067 -194.06)" fill="#ccc"/>
    <path id="パス_2861" data-name="パス 2861" d="M1153.228,398.968v-7.65a1.275,1.275,0,0,0-1.275-1.275h-29a1.275,1.275,0,0,0-1.275,1.275v7.65Z" transform="translate(-44.908 -265.722)" fill="#ccc"/>
    <rect id="長方形_1221" data-name="長方形 1221" width="31.555" height="9.881" transform="translate(1076.765 136.114)" fill="#ccc"/>
    <path id="パス_2862" data-name="パス 2862" d="M1121.673,467.043v7.65a1.275,1.275,0,0,0,1.275,1.275h29a1.275,1.275,0,0,0,1.275-1.275v-7.65Z" transform="translate(-44.908 -318.18)" fill="#ccc"/>
    <circle id="楕円形_26" data-name="楕円形 26" cx="0.956" cy="0.956" r="0.956" transform="translate(1091.427 128.145)" fill="#fff"/>
    <circle id="楕円形_27" data-name="楕円形 27" cx="0.956" cy="0.956" r="0.956" transform="translate(1091.427 140.895)" fill="#fff"/>
    <circle id="楕円形_28" data-name="楕円形 28" cx="0.956" cy="0.956" r="0.956" transform="translate(1091.478 153.374)" fill="#fff"/>
    <path id="パス_2863" data-name="パス 2863" d="M1152.759,362.672v8.773h-21.981a4.389,4.389,0,1,1-.306-8.773q.153-.005.306,0Z" transform="translate(-48.017 -247.074)" fill="#f2f2f2"/>
    <path id="パス_2864" data-name="パス 2864" d="M1152.284,370.951a.338.338,0,0,1-.337.338h-22.575a4.623,4.623,0,0,1-.005-9.246h22.58a.337.337,0,1,1,0,.675h-22.575a3.948,3.948,0,0,0,0,7.9h22.575A.337.337,0,0,1,1152.284,370.951Z" transform="translate(-47.002 -246.647)" fill="#3f3d56"/>
    <path id="パス_2865" data-name="パス 2865" d="M1158.816,368.742H1135.2a.067.067,0,1,1,0-.135h23.622a.067.067,0,0,1,0,.135Z" transform="translate(-54.074 -251.119)" fill="#ccc"/>
    <path id="パス_2866" data-name="パス 2866" d="M1158.816,373.824H1135.2a.067.067,0,1,1,0-.135h23.622a.067.067,0,0,1,0,.135Z" transform="translate(-54.074 -254.581)" fill="#ccc"/>
    <path id="パス_2867" data-name="パス 2867" d="M1158.816,378.905H1135.2a.068.068,0,1,1,0-.135h23.622a.068.068,0,0,1,0,.135Z" transform="translate(-54.074 -258.043)" fill="#ccc"/>
    <path id="パス_2868" data-name="パス 2868" d="M1158.816,383.987H1135.2a.067.067,0,1,1,0-.135h23.622a.067.067,0,0,1,0,.135Z" transform="translate(-54.074 -261.505)" fill="#ccc"/>
    <path id="パス_2869" data-name="パス 2869" d="M1116.48,58.335V2.4a2.4,2.4,0,0,1,2.4-2.4h44.218a2.4,2.4,0,0,1,2.4,2.4V58.335a2.4,2.4,0,0,1-2.4,2.4h-44.218A2.4,2.4,0,0,1,1116.48,58.335Zm2.4-57.8a1.867,1.867,0,0,0-1.865,1.865V58.335a1.867,1.867,0,0,0,1.865,1.865h44.218a1.867,1.867,0,0,0,1.865-1.865V2.4a1.867,1.867,0,0,0-1.865-1.865Z" transform="translate(-41.37)" fill="#e6e6e6"/>
    <path id="パス_2870" data-name="パス 2870" d="M1201.145,53.486V42a1.2,1.2,0,0,1,1.2-1.2h9.733a1.2,1.2,0,0,1,1.2,1.2V53.486a1.2,1.2,0,0,1-1.2,1.2h-9.733A1.2,1.2,0,0,1,1201.145,53.486Z" transform="translate(-99.05 -27.796)" fill="#5d8e96"/>
    <path id="パス_2871" data-name="パス 2871" d="M1141.809,70.2V58.714a1.2,1.2,0,0,1,1.2-1.2h9.733a1.2,1.2,0,0,1,1.2,1.2V70.2a1.2,1.2,0,0,1-1.2,1.2h-9.733A1.2,1.2,0,0,1,1141.809,70.2Z" transform="translate(-58.626 -39.184)" fill="#ccc"/>
    <path id="パス_2872" data-name="パス 2872" d="M1189.445,121.179V109.693a1.2,1.2,0,0,1,1.2-1.2h9.733a1.2,1.2,0,0,1,1.2,1.2v11.486a1.2,1.2,0,0,1-1.2,1.2h-9.733A1.2,1.2,0,0,1,1189.445,121.179Z" transform="translate(-91.079 -73.913)" fill="#ff6584"/>
    <path id="パス_2873" data-name="パス 2873" d="M1343.94,313.041h-10.015a.618.618,0,0,0-.274.064l-2.528,1.265a.461.461,0,0,0,0,.848l2.528,1.265a.618.618,0,0,0,.274.064h10.015a.526.526,0,0,0,.555-.488v-2.531A.526.526,0,0,0,1343.94,313.041Z" transform="translate(-187.408 -213.263)" fill="#3f3d56"/>
    <path id="パス_2874" data-name="パス 2874" d="M1368.223,313.529v2.531a.526.526,0,0,1-.555.488h-2v-3.506h2A.526.526,0,0,1,1368.223,313.529Z" transform="translate(-211.137 -213.263)" fill="#5d8e96"/>
    <path id="パス_2875" data-name="パス 2875" d="M1367.171,253.027a3.507,3.507,0,0,1,4.609,1.831,3.558,3.558,0,0,1,.137.373,3.377,3.377,0,0,1,.1.457l14,6.945,3.241-2.148,4.033,4.642-4.949,4.019a3.553,3.553,0,0,1-4.24.163l-14.209-9.826a3.364,3.364,0,0,1-.324.118,3.508,3.508,0,0,1-4.372-2.341,3.6,3.6,0,0,1-.093-.387,3.456,3.456,0,0,1-.052-.427A3.517,3.517,0,0,1,1367.171,253.027Z" transform="translate(-210.715 -172.182)" fill="#ffb8b8"/>
    <path id="パス_2876" data-name="パス 2876" d="M1393.382,387.792h-15.3c0,.44-15.771.8-15.771.8a4.082,4.082,0,0,0-.673.637,3.957,3.957,0,0,0-.924,2.55v.637a3.986,3.986,0,0,0,3.984,3.984h28.686a3.988,3.988,0,0,0,3.984-3.984v-.637A3.99,3.99,0,0,0,1393.382,387.792Z" transform="translate(-207.757 -264.189)" fill="#3f3d56"/>
    <rect id="長方形_1222" data-name="長方形 1222" width="4.144" height="26.774" transform="translate(1168.979 132.051)" fill="#3f3d56"/>
    <path id="パス_2877" data-name="パス 2877" d="M1373.987,489.293c0,.448,6.279.173,14.024.173s14.024.274,14.024-.173-6.279-4-14.024-4S1373.987,488.845,1373.987,489.293Z" transform="translate(-216.801 -330.614)" fill="#3f3d56"/>
    <path id="パス_2878" data-name="パス 2878" d="M1373.4,466.33h-3.907l-1.859-10.135h5.767Z" transform="translate(-212.471 -310.789)" fill="#ffb8b8"/>
    <path id="パス_2879" data-name="パス 2879" d="M1361.919,489.053h-12.6v-.159a4.9,4.9,0,0,1,4.9-4.9h7.7Z" transform="translate(-199.995 -329.725)" fill="#2f2e41"/>
    <path id="パス_2880" data-name="パス 2880" d="M1349.566,391.22l-7.79-17.469a6.4,6.4,0,0,1,2.811-8.218l16.9-9.061,7.711-.656,7.112-.647.052.087a7.2,7.2,0,0,1,.561,5.649c-.784,2.2-2.824,3.913-6.062,5.1-7.558,2.771-16.29,5.14-19.693,6.03a1.1,1.1,0,0,0-.705.561,1.115,1.115,0,0,0-.062.892l7.238,16.26a1.435,1.435,0,0,1-.853,1.84,1.45,1.45,0,0,1-.361.081l-5.408.394c-.046,0-.092.006-.137.006A1.434,1.434,0,0,1,1349.566,391.22Z" transform="translate(-194.484 -241.964)" fill="#2f2e41"/>
    <path id="パス_2881" data-name="パス 2881" d="M1379.4,466.33h-3.907l-1.859-10.135h5.767Z" transform="translate(-216.558 -310.789)" fill="#ffb8b8"/>
    <path id="パス_2882" data-name="パス 2882" d="M1367.919,489.053h-12.6v-.159a4.9,4.9,0,0,1,4.9-4.9h7.7Z" transform="translate(-204.083 -329.725)" fill="#2f2e41"/>
    <path id="パス_2883" data-name="パス 2883" d="M1356.566,394.22l-7.79-17.469a6.4,6.4,0,0,1,2.811-8.218l16.9-9.061,7.711-.656,7.112-.647.051.087a7.2,7.2,0,0,1,.561,5.649c-.784,2.2-2.824,3.913-6.062,5.1-7.558,2.771-16.29,5.14-19.693,6.03a1.1,1.1,0,0,0-.705.561,1.115,1.115,0,0,0-.062.892l7.238,16.26a1.434,1.434,0,0,1-1.214,1.922l-5.408.394c-.046,0-.092.006-.137.006A1.434,1.434,0,0,1,1356.566,394.22Z" transform="translate(-199.253 -244.008)" fill="#2f2e41"/>
    <path id="パス_2884" data-name="パス 2884" d="M1345.645,256.529a53.393,53.393,0,0,1-7.673-14.321,1.372,1.372,0,0,1,.648-1.651l11.2-6a1.354,1.354,0,0,1,1.187-.048,1.377,1.377,0,0,1,.785.919,32.613,32.613,0,0,0,7.154,13.352,1.376,1.376,0,0,1,.331,1.162,1.354,1.354,0,0,1-.7.962l-11.2,6A1.371,1.371,0,0,1,1345.645,256.529Z" transform="translate(-192.214 -159.683)" fill="#ccc"/>
    <path id="パス_2885" data-name="パス 2885" d="M1348.452,258a.414.414,0,0,0,.517.107l11.2-6a.4.4,0,0,0,.208-.286.42.42,0,0,0-.1-.36,33.579,33.579,0,0,1-7.365-13.745.421.421,0,0,0-.241-.285.4.4,0,0,0-.354.015l-11.2,6a.413.413,0,0,0-.2.49A52.431,52.431,0,0,0,1348.452,258Z" transform="translate(-194.257 -161.727)" fill="#fff"/>
    <path id="パス_2886" data-name="パス 2886" d="M1455.182,283.043l-8.773,3.334-2.142-5.95a3.56,3.56,0,0,1,1.594-4.3h0a3.559,3.559,0,0,1,4.546.888Z" transform="translate(-264.536 -187.798)" fill="#5d8e96"/>
    <path id="パス_2887" data-name="パス 2887" d="M1406.474,306.3a1.594,1.594,0,0,1-.664-1.131c-1.124-10.49-.341-18.7,2.392-25.1a7.966,7.966,0,0,1,5.281-4.519l7.092-.358.037.018a8.289,8.289,0,0,1,4.532,8.794c-2.281,6.012-4.191,12.272-2.734,17.322a1.632,1.632,0,0,1-.154,1.27,1.556,1.556,0,0,1-.993.736l-13.508,3.213a1.584,1.584,0,0,1-1.28-.248Z" transform="translate(-238.143 -187.481)" fill="#5d8e96"/>
    <circle id="楕円形_29" data-name="楕円形 29" cx="7.828" cy="7.828" r="7.828" transform="translate(1172.236 69.409)" fill="#ffb8b8"/>
    <path id="パス_2888" data-name="パス 2888" d="M1361.381,257.132l-6.1,2.693a.957.957,0,0,1-1.261-.489l-.151-.342a.957.957,0,0,1,.489-1.261l6.1-2.693a.957.957,0,0,1,1.261.489l.151.342A.957.957,0,0,1,1361.381,257.132Z" transform="translate(-203.039 -173.695)" fill="#ccc"/>
    <path id="パス_2889" data-name="パス 2889" d="M1368.381,270.132l-6.1,2.693a.957.957,0,0,1-1.261-.489l-.151-.342a.957.957,0,0,1,.489-1.261l6.1-2.693a.957.957,0,0,1,1.261.489l.151.342A.957.957,0,0,1,1368.381,270.132Z" transform="translate(-207.808 -182.551)" fill="#ccc"/>
    <path id="パス_2890" data-name="パス 2890" d="M1360.387,288.034l-13.6-10.731a3.265,3.265,0,0,1-.33.1,3.514,3.514,0,0,1-2.811-.539,3.478,3.478,0,0,1-1.474-2.465,3.506,3.506,0,0,1,6.783-1.592,3.559,3.559,0,0,1,.113.381,3.341,3.341,0,0,1,.073.463l13.541,7.811,3.369-1.94,3.733,4.887-5.232,3.729A3.488,3.488,0,0,1,1360.387,288.034Z" transform="translate(-195.109 -184.269)" fill="#ffb8b8"/>
    <path id="パス_2891" data-name="パス 2891" d="M1417.468,293.405l-7.761-5.277,3.647-5.166a3.56,3.56,0,0,1,4.44-1.16h0a3.56,3.56,0,0,1,1.879,4.234Z" transform="translate(-241.136 -191.746)" fill="#5d8e96"/>
    <path id="パス_2892" data-name="パス 2892" d="M1419.3,218.019c-2.012,1.377-4.654,2.793-6.709,1.326a3.74,3.74,0,0,1-1.227-4.311c.984-2.814,3.688-4.053,6.273-5,3.361-1.234,7.021-2.216,10.49-1.332s6.536,4.243,5.91,7.769c-.5,2.835-3.178,5.194-2.8,8.048.382,2.872,3.613,4.385,6.464,4.9s6.043.678,8.093,2.727c2.615,2.613,1.962,7.284-.5,10.043s-6.173,4.01-9.771,4.86c-4.766,1.126-9.922,1.719-14.449-.151s-8.05-6.9-6.739-11.621a16.218,16.218,0,0,1,3.12-5.318,14.823,14.823,0,0,0,3.019-5.367,5.581,5.581,0,0,0-1.008-4.881,1.415,1.415,0,0,1-.19-1.653Z" transform="translate(-242.108 -141.948)" fill="#2f2e41"/>
  </g>
</svg>
