<svg xmlns="http://www.w3.org/2000/svg" width="268" height="140" viewBox="0 0 268 140">
  <g id="h1_title" transform="translate(-9 -67)">
    <rect id="長方形_1213" data-name="長方形 1213" width="256" height="64" transform="translate(9 67)" fill="#6ca1aa"/>
    <rect id="長方形_1214" data-name="長方形 1214" width="256" height="127" transform="translate(21 80)" fill="#426f77"/>
    <rect id="長方形_1215" data-name="長方形 1215" width="256" height="128" transform="translate(13 71)" fill="#fff"/>
    <g id="グループ_28" data-name="グループ 28" transform="matrix(1, 0.017, -0.017, 1, 25.92, 80.974)">
      <path id="パス_66" data-name="パス 66" d="M13.594,32.132c-.5,3,.146,6.047-.951,8.8a1.666,1.666,0,0,1-2.052-.39,1.866,1.866,0,0,1-.674-1.681c.067-.81.153-1.617.23-2.425a103.524,103.524,0,0,0,.327-10.8c-.017-1.891.177-3.784.265-5.676a36.631,36.631,0,0,0-.155-7.91,4,4,0,0,0-1.355-.031,33.217,33.217,0,0,0-3.218,1.374c-1.02.494-2.794,4.386-2.969,5.585a4.755,4.755,0,0,1-.8,1.547,1.407,1.407,0,0,1-1.1.47,1.71,1.71,0,0,1-1.066-.66c-.206-.244.125-1.264.14-1.6C.273,17.293,1.387,13.5,1.55,12.069c.318-2.778.723-5.547,1.038-8.326.09-.8-.041-1.62-.008-2.429A1.407,1.407,0,0,1,4.29.024a2.537,2.537,0,0,1,2.2,2.638C6.342,4.185,6.029,5.691,5.785,7.2c-.111.689-.229,1.377-.377,2.264a13.217,13.217,0,0,0,1.748-.2A37.143,37.143,0,0,1,15.707,8.02a19.759,19.759,0,0,1,4.016.393c.874.157,1.057.643,1.016,1.88-2.1.259-4.292-.031-6.465.679.018,1.294.065,2.527.043,3.758-.022,1.172-.124,2.343-.176,3.515-.055,1.254-.091,2.508-.133,3.688,1.1.835,2.24.5,3.281.65A3.926,3.926,0,0,1,20.616,24.9c-.994,1.22-2.323.548-3.4.919a23.278,23.278,0,0,1-3.276.634c-.041.078-.26.3-.265.534-.022,1.011.363,1.472,1.171,1.349a16.632,16.632,0,0,0,2.361-.568c.948-.291,1.871-.662,2.811-.978a7.1,7.1,0,0,1,1.3-.345,1.111,1.111,0,0,1,1.172,1.406,2.952,2.952,0,0,1-1.5,1.822A14.648,14.648,0,0,1,13.594,32.132Z" transform="translate(156.884 54.063) rotate(1)" fill="#333"/>
      <path id="パス_67" data-name="パス 67" d="M13.488,18.379c-.854.824-1.457,1.338-1.981,1.923-1.9,2.119-3.8,4.235-5.639,6.4a13.79,13.79,0,0,0-3.09,5.186,1.017,1.017,0,0,1-1.6.508,1.909,1.909,0,0,1-.93-2.679A24.957,24.957,0,0,1,3.985,24.06q6.4-6.689,12.221-13.888c.154-.189.289-.4.458-.57a41.208,41.208,0,0,0,5.7-8.169A7.338,7.338,0,0,1,23.04.427,1.013,1.013,0,0,1,24.547.263a7.747,7.747,0,0,1,1.039,1.016,1.313,1.313,0,0,1,.19,1.588,23.333,23.333,0,0,1-1.794,2.9c-2.113,2.677-4.3,5.3-6.463,7.935-.205.25-.463.457-.682.7-1.343,1.479-1.412,1.574-.462,3.4a11.034,11.034,0,0,1,1.019,5.932,48.139,48.139,0,0,1-.794,5.787c-.371,1.993-.876,3.963-1.356,5.935a1.347,1.347,0,0,1-2.231.88,1.834,1.834,0,0,1-.97-2.454c.664-2.846,1.371-5.683,1.951-8.546A13.356,13.356,0,0,0,13.488,18.379Z" transform="translate(65.382 7.154)" fill="#333"/>
      <path id="パス_68" data-name="パス 68" d="M9.455,24.411a2.621,2.621,0,0,1,1.031-2.15,12.273,12.273,0,0,0,2.589-4.4,5.415,5.415,0,0,0,.07-3.684,5.2,5.2,0,0,0-2.949.467c-2.243.677-4.494,1.331-6.737,2.01A2.725,2.725,0,0,1,.222,15.338a1.09,1.09,0,0,1,.351-1.626,7.577,7.577,0,0,1,1.507-.551c2.948-.821,5.9-1.618,8.847-2.448.232-.066.411-.323.7-.565a12.232,12.232,0,0,0-.7-1.412C9.8,7.044,9.481,6.947,7.6,7.6c-.6.207-1.175.468-1.781.636A2.754,2.754,0,0,1,3.5,7.816a1.482,1.482,0,0,1-.058-2.64c.752-.454,1.585-.772,2.574-1.242-.548-.77-1.022-1.39-1.444-2.044A1.093,1.093,0,0,1,4.739.419,1.147,1.147,0,0,1,6.216.17a9.515,9.515,0,0,1,1.9,1.49,2.978,2.978,0,0,0,3.423.788,27,27,0,0,1,4.236-.832,2.83,2.83,0,0,1,2.507.742c.377.378.894.786.59,1.359a1.82,1.82,0,0,1-1.049.723c-1.208.349-2.447.589-3.664.91a10.135,10.135,0,0,0-1.273.53c.246,1.439,1.294,2.227,1.911,3.159a3.355,3.355,0,0,0,2.5-.03c1.644-.477,3.283-.974,4.934-1.427a1.27,1.27,0,0,1,1.534.779,1.193,1.193,0,0,1-.317,1.681,31.63,31.63,0,0,1-3.4,1.613c-.981.4-2.012.681-3.126,1.048.051.845.051,1.552.142,2.248a9.058,9.058,0,0,1-2.912,7.815A5.2,5.2,0,0,1,9.455,24.411Z" transform="translate(5.699 65.041)" fill="#333"/>
      <path id="パス_69" data-name="パス 69" d="M9.592,5.781c2.588.183,4.994-.591,7.354-.947a2.562,2.562,0,0,0,.219-2.441C16.878.991,17.108.257,17.8.039a2.207,2.207,0,0,1,2.157,1.313A26.59,26.59,0,0,1,21.079,4a4.284,4.284,0,0,0,2.719.262c1.437-.117,2.871-.28,4.309-.391a2.533,2.533,0,0,1,1.321.094,2.327,2.327,0,0,1,1.015,1.127,1.013,1.013,0,0,1-.73,1.272,18.235,18.235,0,0,1-2.618.591c-1.945.318-3.965.1-6.022.835-.305,1.258-.651,2.551-.931,3.859A36.557,36.557,0,0,1,12.952,27.5a8.826,8.826,0,0,1-1.466,1.569,2.73,2.73,0,0,1-1.5.444,1.115,1.115,0,0,1-.965-1.726,9.05,9.05,0,0,1,.641-.869c3.842-4.964,5.916-10.684,7.144-16.76a8.547,8.547,0,0,0,.039-1.537,9.99,9.99,0,0,0-6.326,1.252c.345,1.764.785,3.463,2.433,4.6.288.2.392.782.428,1.2a.926.926,0,0,1-1.243.979,5.7,5.7,0,0,1-1.966-1.326,14.917,14.917,0,0,1-1.861-2.968A4.831,4.831,0,0,0,5.878,9.608c-.161-.063-5.106.471-5.241.352a1.452,1.452,0,0,1-.1-2.33c.229-.262,5.4-1.092,5.7-1.3,0-.92-.06-1.723.008-2.515A1.27,1.27,0,0,1,7.168,2.61a1.114,1.114,0,0,1,1.325.681C8.895,4.078,9.213,4.909,9.592,5.781Z" transform="translate(35.936 15.26)" fill="#333"/>
      <path id="前面オブジェクトで型抜き_1" data-name="前面オブジェクトで型抜き 1" d="M2.494,27.154a2.554,2.554,0,0,1-.914-.176A1.683,1.683,0,0,1,.454,24.96a14.333,14.333,0,0,1,.993-2.323c.556-1.08,1.135-2.172,1.694-3.229l.045-.085c.562-1.061,1.2-2.264,1.8-3.423.247-.48.451-.989.709-1.633l.009-.022c.136-.34.291-.725.476-1.166l-.95.207H5.219l-.007,0c-.5.109-.828.18-1.155.249a3.14,3.14,0,0,1-.645.068,3.671,3.671,0,0,1-2.062-.7C.6,12.4-.075,11.873.007,10.915c.071-.835.588-1.388,1.627-1.742.281-.1.565-.2.84-.3l.007,0a16.849,16.849,0,0,1,2.167-.681c2.175-.471,3.57-1.251,4.145-2.32a8.149,8.149,0,0,0,.5-1.393A8.671,8.671,0,0,1,11.185.684,1.95,1.95,0,0,1,12.51,0a1.3,1.3,0,0,1,1.055.611,2.366,2.366,0,0,1,.413,1.269,10.73,10.73,0,0,1-.132,1.552c-.154,1.179-.313,2.4.222,3.053a1.352,1.352,0,0,0,1.012.463A5.89,5.89,0,0,1,18.9,9.021a6.052,6.052,0,0,1,1.175,4.188,10.512,10.512,0,0,1-.839,3.675,32.584,32.584,0,0,1-3.056,5.536,4.848,4.848,0,0,1-3.83,2.37,5.4,5.4,0,0,1-4.026-2.334c-.131-.161-.259-.329-.421-.542l0,0-.031-.041-.258-.337c-.136.153-.27.294-.419.45a7.152,7.152,0,0,0-.783.92c-.307.46-.6.942-.875,1.408l0,.006c-.361.6-.735,1.225-1.148,1.8A2.3,2.3,0,0,1,2.494,27.154Zm11.5-16.511h-.021a2.388,2.388,0,0,0-1.173.272,2.077,2.077,0,0,0-.813.9c-.214.524-.392,1.071-.564,1.6-.146.449-.3.912-.469,1.362a5.154,5.154,0,0,0-.359,1.862,7.794,7.794,0,0,0,1.022,3.571,11.971,11.971,0,0,0,3.939-7.424,1.752,1.752,0,0,0,.023-.3,3.159,3.159,0,0,0-.418-1.455.415.415,0,0,0-.025-.039,1.475,1.475,0,0,0-1.116-.35Z" transform="translate(47.265 68.918)" fill="#333"/>
      <path id="パス_71" data-name="パス 71" d="M31.494,3.552a47.3,47.3,0,0,0-13.668-.138c.129.48.2.877.34,1.249a14.7,14.7,0,0,1,.194,9.906A26.019,26.019,0,0,1,14.4,22.341,12.988,12.988,0,0,1,12.621,24.3a2.3,2.3,0,0,1-2.48.389A1.026,1.026,0,0,1,9.6,23.372a3.9,3.9,0,0,1,.461-.643,27.9,27.9,0,0,0,4.769-8.54,16.557,16.557,0,0,0,1.024-6.005,9.757,9.757,0,0,0-1.264-4.175,17.284,17.284,0,0,0-2.021.233A39.634,39.634,0,0,0,5.3,6.615a15.482,15.482,0,0,1-2.471.922A2.281,2.281,0,0,1,.185,6.259a1.456,1.456,0,0,1,.866-2.117C4.084,3.236,7.108,2.3,10.16,1.461,15.135.1,24.212-.083,29.327.027A3.447,3.447,0,0,1,31,.668a1.757,1.757,0,0,1,.695,1.069A7.366,7.366,0,0,1,31.494,3.552Z" transform="matrix(0.998, -0.07, 0.07, 0.998, 0, 22.433)" fill="#333"/>
      <path id="パス_72" data-name="パス 72" d="M9.682,8.478a15.017,15.017,0,0,0,.193-5.546A18,18,0,0,1,9.7,1.054,1.158,1.158,0,0,1,11.509.19a3.9,3.9,0,0,1,1.743,2.631A13.283,13.283,0,0,1,13.427,4.7c.061.892.107,1.785.17,2.851.68.057,1.27.15,1.859.143.443-.005.882-.186,1.327-.2a1.492,1.492,0,0,1,1.309,1.185,1.1,1.1,0,0,1-.648,1.343c-1.155.5-2.346.912-3.729,1.439a13.132,13.132,0,0,0-.489,1.585c-.492,2.569-.948,5.145-1.414,7.719A35.134,35.134,0,0,1,9,28.927,15.2,15.2,0,0,1,7.12,31.88a4.351,4.351,0,0,1-1.5,1.089A1.324,1.324,0,0,1,3.9,32.753a1.438,1.438,0,0,1,.18-1.526A31.7,31.7,0,0,0,7.7,22.507c.648-3.081,1.067-6.211,1.567-9.323.023-.144-.133-.316-.265-.608-1.345-.218-2.509.556-3.743.972a8.221,8.221,0,0,0-1.161.689c-1.634.885-2.665.683-3.772-.721a1.189,1.189,0,0,1,.294-1.866A26.054,26.054,0,0,1,4.526,9.868C6.139,9.316,7.822,8.969,9.682,8.478Z" transform="translate(95.666 64.335)" fill="#333"/>
      <path id="パス_73" data-name="パス 73" d="M17.471,10.342a16.084,16.084,0,0,1-1.285,6.227,35.273,35.273,0,0,1-5.909,9.639,3.665,3.665,0,0,1-2.94,1.676c-.747-.024-1.211-.608-.856-1.272.593-1.11,1.231-2.2,1.923-3.253a49.778,49.778,0,0,0,4.243-8.141,14.3,14.3,0,0,0,.917-8.991c-.651-2.78-1.979-3.475-4.479-2.04A25.351,25.351,0,0,0,5.514,7.042a2.058,2.058,0,0,0-.671,1.7,10.041,10.041,0,0,1-.137,2.413,2.081,2.081,0,0,1-3.551,1.13A2.915,2.915,0,0,1,.326,8.619,23.714,23.714,0,0,1,2.9,4.524,14.21,14.21,0,0,1,7.282.956a6.073,6.073,0,0,1,8.883,2.729A13.994,13.994,0,0,1,17.471,10.342Z" transform="translate(205.279 68.255)" fill="#333"/>
      <path id="パス_74" data-name="パス 74" d="M18.011,19.695a3.249,3.249,0,0,1-1.6,2.814C13.6,24.1,9.292,24.161,7.178,20.5a4.959,4.959,0,0,1-.533-4.146c.265-.853.554-1.7.755-2.311L4.336,8.227c-.661-.056-1.463-.091-2.255-.2a2.454,2.454,0,0,1-2-1.619A1.117,1.117,0,0,1,.808,4.9a25.957,25.957,0,0,1,2.68-.271,2.738,2.738,0,0,0,2.68-1.875A10.985,10.985,0,0,1,7.2.865,1.569,1.569,0,0,1,8.773.011C9.527.1,9.834.671,9.97,1.3c.149.69.185,1.406.292,2.293.889,0,1.771.006,2.653,0a1.561,1.561,0,0,1,1.478.986,1.157,1.157,0,0,1-.7,1.727c-.781.209-1.586.325-2.383.474-.443.083-.891.14-1.333.225A2.017,2.017,0,0,0,8.262,9.937a1.639,1.639,0,0,0,2.326,1.117c.592-.216,1.15-.534,1.751-.711a3,3,0,0,1,3.011.724,2.409,2.409,0,0,1,.61,2.726c-.323,1-.839,1.817-2.023,1.882-.629.035-1.263-.018-1.891.024a2.968,2.968,0,0,0-2.236,3.4,2.182,2.182,0,0,0,1.117,1.07,4.617,4.617,0,0,0,3.18.09c.864-.253,1.715-.571,2.593-.756A4.134,4.134,0,0,1,18.011,19.695Z" transform="translate(118.575 70.637)" fill="#333"/>
      <path id="パス_75" data-name="パス 75" d="M8.525,17.946c-.55.386-.92,1.136-1.367,1.374-1,.534-5.971,4.752-6.6,3.987A1.924,1.924,0,0,1,.32,20.9c.047-.076,4.369-4.715,4.429-4.78C7.611,13.038,7.978,9,8.88,5.179,9.22,3.738,9.052,3.7,7.786,2.3a6.215,6.215,0,0,1,.442-1.208c.8-1.316,2.209-1.472,3.087-.3a5.346,5.346,0,0,1,.915,1.919,8.624,8.624,0,0,1-.086,4.549c-.5,1.637-1.052,3.257-1.582,4.885-.305.938-.612,1.876-.915,2.8a28.336,28.336,0,0,1,2.03,2.926,12.572,12.572,0,0,1,1.43,6.536A31.809,31.809,0,0,1,12,32.423a6.47,6.47,0,0,1-.5,1.535,1.212,1.212,0,0,1-.8.592,2.037,2.037,0,0,1-2.016-2.076c.032-.354.184-.694.249-1.046.471-2.571.494-1.921.91-4.5a15.8,15.8,0,0,0-.391-6.7C9.283,19.631,8.822,18.7,8.525,17.946Z" transform="matrix(0.998, 0.07, -0.07, 0.998, 141.114, 59.93)" fill="#333"/>
      <path id="パス_76" data-name="パス 76" d="M7.223,3.527A3.962,3.962,0,0,0,4.144,3.7a10.855,10.855,0,0,1-1.514.589A1.887,1.887,0,0,1,.183,3.172,1.1,1.1,0,0,1,.4,1.7C2.905-.456,7.452-.638,9.92,1.593a2.814,2.814,0,0,1,.836,3.646A10.976,10.976,0,0,1,9.682,7.107c-.4.6-.861,1.145-1.4,1.853.483.365.873.687,1.293.966.375.25.8.424,1.172.678a4.456,4.456,0,0,1,1.845,5.683,17.978,17.978,0,0,1-5.38,7.025,2.62,2.62,0,0,1-1.5.469,1.63,1.63,0,0,1-1.545-.925,1.356,1.356,0,0,1,.354-1.489c1.005-1.279,2.09-2.5,3-3.842A17.187,17.187,0,0,0,9.281,14.2c.4-1-.163-1.784-1.262-1.92a10.882,10.882,0,0,0-2.149.056,14.09,14.09,0,0,1-2.143.219,2.642,2.642,0,0,1-1.4-.676A1.317,1.317,0,0,1,2.259,9.94c.5-.521,1.073-.966,1.6-1.46A11.863,11.863,0,0,0,7.223,3.527Z" transform="translate(185.16 70.724)" fill="#333"/>
      <path id="パス_77" data-name="パス 77" d="M11.789,3.945a10.252,10.252,0,0,0-1.7.013A19.054,19.054,0,0,0,4.546,6.023a7.033,7.033,0,0,1-1.876.836A2.23,2.23,0,0,1,0,4.457,1.456,1.456,0,0,1,.993,3.1C3.028,2.331,5.044,1.49,7.123.861A24.107,24.107,0,0,1,14.77.014a3.063,3.063,0,0,1,2.89,1.7c.552,1.034.57,1.539-.217,2.406-1,1.1-2.072,2.132-3.057,3.243a31.059,31.059,0,0,0-2.22,2.78A10.484,10.484,0,0,0,13.7,24.157a9.867,9.867,0,0,1,1.223,1.274.89.89,0,0,1,.052.823c-.2.289-.6.669-.864.632a3.715,3.715,0,0,1-1.9-.652,18.473,18.473,0,0,1-2.794-3.046,14.821,14.821,0,0,1-2.327-5.428,10.872,10.872,0,0,1,.686-7.248,22.379,22.379,0,0,1,3.044-5.08A15.764,15.764,0,0,0,11.789,3.945Z" transform="translate(127.943 17.062)" fill="#333"/>
      <path id="パス_78" data-name="パス 78" d="M15.536,9.151c1.12-.577,2.213-1.173,3.334-1.711,2.079-1,4.152-2.017,6.27-2.927,1.7-.731,2.685-.678,2.846,0,.292,1.234-.634,1.915-1.387,2.61a11.933,11.933,0,0,1-1.785,1.282c-4.536,2.849-9.1,5.652-13,9.386a5.113,5.113,0,0,1-.727.6,2.618,2.618,0,0,1-3.991-1.566,1.7,1.7,0,0,1,.592-1.971c.5-.379,1.048-.7,1.534-1.1a10.513,10.513,0,0,0,1.609-1.492c2.143-2.706,1.07-5.989-2.3-6.844a27.526,27.526,0,0,0-4.664-.643A4.893,4.893,0,0,1,.433,2.782,1.523,1.523,0,0,1,.353.748,2.191,2.191,0,0,1,1.948.007c3.564.461,7.033,1.26,9.934,3.587C13.574,4.951,14.288,6.017,15.536,9.151Z" transform="translate(93.393 19.848)" fill="#333"/>
      <path id="パス_79" data-name="パス 79" d="M4.877,6.133C2.486,5.826.919,4.83.105,2.756A1.394,1.394,0,0,1,1.055.84a1.488,1.488,0,0,1,1.181.3C3.639,2.628,5.4,2.677,7.12,2.381,9.437,1.983,11.714,1.329,14,.756c.762-.191,1.492-.527,2.257-.692A2.148,2.148,0,0,1,18.9,1.7a1.3,1.3,0,0,1-.8,1.76C14.188,4.321,10.433,5.972,6.37,6.1,5.762,6.117,5.154,6.126,4.877,6.133Z" transform="matrix(0.998, -0.07, 0.07, 0.998, 6.678, 12.783)" fill="#333"/>
      <path id="パス_80" data-name="パス 80" d="M8.16,3.86c-.742.246-4.269.745-4.744.9A2.841,2.841,0,0,1,.644,4.14,1.514,1.514,0,0,1,.49,1.786c.865-.864,5-1.629,6.2-1.749A7.407,7.407,0,0,1,11.11,1c1.905,1.068,2.375,2.7,1.284,4.555A15.993,15.993,0,0,1,7.716,10.72a2.481,2.481,0,0,1-2.028.543,10.929,10.929,0,0,1-1.748-.8C4.9,7.959,7.582,6.751,8.16,3.86Z" transform="translate(30.083 84.771)" fill="#333"/>
      <path id="パス_81" data-name="パス 81" d="M7.176,14.939a11.125,11.125,0,0,1,.468,1.642,1.372,1.372,0,0,1-1.707,1.506,5.54,5.54,0,0,1-2.264-1.359,13.942,13.942,0,0,1-2.178-3.364A17.038,17.038,0,0,1,.02,5.486c.053-1.167.107-2.337.25-3.494A3.562,3.562,0,0,1,.822.518a1.074,1.074,0,0,1,1.419-.4A3.159,3.159,0,0,1,4.247,4.007a17.27,17.27,0,0,0-.16,6.956,18.073,18.073,0,0,0,.462,1.825C5.059,14.342,5.072,14.338,7.176,14.939Z" transform="translate(87.522 69.26)" fill="#333"/>
      <path id="パス_82" data-name="パス 82" d="M17.995,7.191a3.7,3.7,0,0,1-3.163.1Q10.957,6.083,7.084,4.873c-1.377-.431-2.769-.821-4.122-1.316A13.722,13.722,0,0,1,.55,2.369a1.336,1.336,0,0,1-.4-1.69A1.308,1.308,0,0,1,1.513.01a5.549,5.549,0,0,1,1.31.312C7.314,1.959,11.8,3.616,16.29,5.248A2.311,2.311,0,0,1,17.995,7.191Z" transform="translate(7.018 89.646)" fill="#333"/>
      <path id="パス_83" data-name="パス 83" d="M8.75,7.874c-1.594.475-2.06-1-3.025-1.474a1.348,1.348,0,0,0-.514.081c-.687.457-1.424.941-2.237.564A5.531,5.531,0,0,1,1.061,5.661a4.472,4.472,0,0,1-.845-4.3A1.685,1.685,0,0,1,1.424.045,1.519,1.519,0,0,1,3.058.725,18.351,18.351,0,0,1,4.051,2.4a2.718,2.718,0,0,0,.7-.145c1.594-.8,2.429-.742,3.154.55A7.22,7.22,0,0,1,8.75,7.874Z" transform="matrix(0.985, -0.174, 0.174, 0.985, 57.215, 7.551)" fill="#333"/>
      <path id="パス_84" data-name="パス 84" d="M17.92,11.747a4.353,4.353,0,0,1-4.088-.663c-1.8-1.113-3.524-2.336-5.311-3.464s-3.628-2.162-5.4-3.3a18.316,18.316,0,0,1-2.742-2.1A1.216,1.216,0,0,1,.353.478,2.105,2.105,0,0,1,1.758,0a3.146,3.146,0,0,1,1.48.509C5.667,2,8.093,3.5,10.478,5.063,12.6,6.451,14.642,7.95,16.756,9.346,17.6,9.9,18.343,10.426,17.92,11.747Z" transform="translate(66.005 72.081)" fill="#333"/>
      <path id="パス_85" data-name="パス 85" d="M4.336,11.659A8.062,8.062,0,0,1,3.278,8.468,8.843,8.843,0,0,0,.994,3.427,4.324,4.324,0,0,1,.042,1.548,1.26,1.26,0,0,1,1.686.088,4.141,4.141,0,0,1,3.408,1.3,11.771,11.771,0,0,1,5.875,9.075,2.688,2.688,0,0,1,4.336,11.659Z" transform="translate(209.97 54.268)" fill="#333"/>
      <path id="パス_86" data-name="パス 86" d="M.014,1.994A1.588,1.588,0,0,1,.816.251a1.669,1.669,0,0,1,2.159.3C3.718,1.757,5.5,4.7,4.633,6.242a1.524,1.524,0,0,1-1.127.721C3.132,6.939.157,3.55.014,1.994Z" transform="translate(141.765 8.001)" fill="#333"/>
      <path id="パス_87" data-name="パス 87" d="M.014,1.944A1.542,1.542,0,0,1,.806.244,1.662,1.662,0,0,1,2.937.538C3.67,1.713,5.432,4.578,4.574,6.085a1.507,1.507,0,0,1-1.112.7C3.092,6.765.155,3.46.014,1.944Z" transform="matrix(0.998, -0.07, 0.07, 0.998, 24.973, 5.332)" fill="#333"/>
      <path id="パス_88" data-name="パス 88" d="M.014,1.944A1.542,1.542,0,0,1,.806.244,1.662,1.662,0,0,1,2.937.538C3.67,1.713,5.432,4.578,4.574,6.085a1.507,1.507,0,0,1-1.112.7C3.092,6.765.155,3.46.014,1.944Z" transform="matrix(0.998, -0.07, 0.07, 0.998, 30.204, 5.005)" fill="#333"/>
      <path id="パス_89" data-name="パス 89" d="M.014,1.994A1.588,1.588,0,0,1,.816.251a1.669,1.669,0,0,1,2.159.3C3.718,1.757,5.5,4.7,4.633,6.242a1.524,1.524,0,0,1-1.127.721C3.132,6.939.157,3.55.014,1.994Z" transform="translate(146.517 5.965)" fill="#333"/>
    </g>
  </g>
</svg>
