<svg xmlns="http://www.w3.org/2000/svg" width="167.827" height="159.344" viewBox="0 0 167.827 159.344">
  <g id="implementation_image" transform="translate(-252.552)">
    <path id="パス_2922" data-name="パス 2922" d="M416.444,116.307H256.891a4.113,4.113,0,0,1-4.108-4.108V13.816a3.013,3.013,0,0,1,3.01-3.01h161.7a3.065,3.065,0,0,1,3.062,3.062V112.2A4.113,4.113,0,0,1,416.444,116.307Z" transform="translate(-0.174 -8.116)" fill="#f2f2f2"/>
    <path id="パス_2923" data-name="パス 2923" d="M428.932,135.836h-148.7a3.838,3.838,0,0,1-3.953-3.7V46.46a2.845,2.845,0,0,1,2.929-2.745h150.7a2.892,2.892,0,0,1,2.978,2.791v85.628A3.838,3.838,0,0,1,428.932,135.836Z" transform="translate(-17.82 -32.831)" fill="#fff"/>
    <path id="パス_2924" data-name="パス 2924" d="M420.322,6.212H252.552V4.121A4.126,4.126,0,0,1,256.675,0H416.2a4.126,4.126,0,0,1,4.123,4.121Z" transform="translate(0)" fill="#3f3d56"/>
    <circle id="楕円形_32" data-name="楕円形 32" cx="1.066" cy="1.066" r="1.066" transform="translate(258.978 2.046)" fill="#fff"/>
    <circle id="楕円形_33" data-name="楕円形 33" cx="1.066" cy="1.066" r="1.066" transform="translate(263.026 2.046)" fill="#fff"/>
    <circle id="楕円形_34" data-name="楕円形 34" cx="1.066" cy="1.066" r="1.066" transform="translate(267.075 2.046)" fill="#fff"/>
    <path id="パス_2925" data-name="パス 2925" d="M483.956,109.092H454.874a1.635,1.635,0,0,1,0-3.27h29.083a1.635,1.635,0,0,1,0,3.27Z" transform="translate(-150.722 -79.475)" fill="#ccc"/>
    <path id="パス_2926" data-name="パス 2926" d="M629.1,109.092H600.02a1.635,1.635,0,0,1,0-3.27H629.1a1.635,1.635,0,0,1,0,3.27Z" transform="translate(-259.73 -79.475)" fill="#ccc"/>
    <path id="パス_2927" data-name="パス 2927" d="M564.214,133.974H513.621a1.635,1.635,0,0,1,0-3.27h50.593a1.635,1.635,0,0,1,0,3.27Z" transform="translate(-194.841 -98.162)" fill="#ccc"/>
    <path id="パス_2928" data-name="パス 2928" d="M483.962,83.864H454.879a1.635,1.635,0,0,1,0-3.27h29.083a1.635,1.635,0,0,1,.005,3.27Z" transform="translate(-150.727 -60.528)" fill="#ccc"/>
    <path id="パス_2929" data-name="パス 2929" d="M611.045,84.21h-8.26a1.635,1.635,0,0,1,0-3.27h8.26a1.635,1.635,0,0,1,0,3.27Z" transform="translate(-261.807 -60.788)" fill="#ccc"/>
    <path id="パス_2930" data-name="パス 2930" d="M463.139,133.974h-8.26a1.635,1.635,0,0,1,0-3.27h8.26a1.635,1.635,0,0,1,.005,3.27Z" transform="translate(-150.727 -98.162)" fill="#ccc"/>
    <path id="パス_2931" data-name="パス 2931" d="M483.953,342.092H454.871a1.635,1.635,0,0,1,0-3.27h29.083a1.635,1.635,0,0,1,0,3.27Z" transform="translate(-150.719 -254.464)" fill="#ccc"/>
    <path id="パス_2932" data-name="パス 2932" d="M629.1,342.092H600.017a1.635,1.635,0,1,1,0-3.27H629.1a1.635,1.635,0,0,1,0,3.27Z" transform="translate(-259.727 -254.464)" fill="#ccc"/>
    <path id="パス_2933" data-name="パス 2933" d="M564.214,366.974H513.621a1.635,1.635,0,0,1,0-3.27h50.593a1.635,1.635,0,0,1,.005,3.27Z" transform="translate(-194.841 -273.151)" fill="#ccc"/>
    <path id="パス_2934" data-name="パス 2934" d="M483.953,316.864H454.871a1.635,1.635,0,0,1,0-3.27h29.083a1.635,1.635,0,0,1,0,3.27Z" transform="translate(-150.719 -235.517)" fill="#ccc"/>
    <path id="パス_2935" data-name="パス 2935" d="M611.042,317.21h-8.26a1.635,1.635,0,1,1,0-3.27h8.26a1.635,1.635,0,1,1,0,3.27Z" transform="translate(-261.803 -235.777)" fill="#ccc"/>
    <path id="パス_2936" data-name="パス 2936" d="M463.131,366.974h-8.26a1.635,1.635,0,0,1,0-3.27h8.26a1.635,1.635,0,0,1,.005,3.27Z" transform="translate(-150.719 -273.151)" fill="#ccc"/>
    <path id="パス_2937" data-name="パス 2937" d="M506.109,202.56a2.341,2.341,0,0,1-1.649-.675l-10.932-10.8a2.278,2.278,0,0,1-.021-3.222l.021-.02L504.416,177.1a2.415,2.415,0,0,1,3.4.011h0a2.416,2.416,0,0,1,0,3.407l-8.091,8.091a1.348,1.348,0,0,0,0,1.9l8.047,8.047a2.345,2.345,0,0,1-1.66,4Z" transform="translate(-180.47 -132.483)" fill="#5d8e96"/>
    <path id="パス_2938" data-name="パス 2938" d="M608.8,202.56a2.345,2.345,0,0,1-1.66-4l8.047-8.047a1.348,1.348,0,0,0,0-1.9l-8.091-8.091a2.408,2.408,0,0,1,0-3.406,0,0,0,0,1,0,0h0a2.415,2.415,0,0,1,3.4-.011l10.888,10.752a2.279,2.279,0,0,1,.02,3.222l-.02.02-10.932,10.8A2.341,2.341,0,0,1,608.8,202.56Z" transform="translate(-265.738 -132.483)" fill="#5d8e96"/>
    <ellipse id="楕円形_35" data-name="楕円形 35" cx="7.325" cy="7.325" rx="7.325" ry="7.325" transform="translate(379.463 49.352)" fill="#ffb8b8"/>
    <path id="パス_2939" data-name="パス 2939" d="M827.112,525.21l-2.737,4.65,13.036,5.654,1.855-3.151Z" transform="translate(-427.728 -387.914)" fill="#ffb8b8"/>
    <path id="パス_2940" data-name="パス 2940" d="M866.436,546.875l-5.98,10.159-.129-.076h0a4.588,4.588,0,0,1-1.627-6.282h0l3.652-6.2Z" transform="translate(-451.371 -401.432)" fill="#2f2e41"/>
    <path id="パス_2941" data-name="パス 2941" d="M788.662,539.971h-4.505l1.452,11.773h3.052Z" transform="translate(-399.249 -405.532)" fill="#ffb8b8"/>
    <path id="パス_2942" data-name="パス 2942" d="M777.634,587.994H765.845v-.149h0a4.589,4.589,0,0,1,4.589-4.588h7.2Z" transform="translate(-386.653 -428.65)" fill="#2f2e41"/>
    <path id="パス_2943" data-name="パス 2943" d="M797.012,458.132l-16.827-9.708a10.75,10.75,0,0,1-5.382-9.669l.682-21.392,20.246-1.671-9.467,24.893,15.69,10.48.05.036a1.342,1.342,0,0,1,.285,1.876l-3.526,4.789a1.34,1.34,0,0,1-1.751.366Z" transform="translate(-392.935 -311.057)" fill="#2f2e41"/>
    <path id="パス_2944" data-name="パス 2944" d="M785.063,524.43l-5.032-.333a1.339,1.339,0,0,1-1.253-1.292l-.732-20.99,9.188.484-.742,20.84a1.342,1.342,0,0,1-1.338,1.294C785.124,524.433,785.093,524.432,785.063,524.43Z" transform="translate(-395.216 -371.496)" fill="#2f2e41"/>
    <path id="パス_2945" data-name="パス 2945" d="M766.526,330.219c-.686-1.028.381-25.107.573-26.643a10.472,10.472,0,0,0-.28-2.229c-.391-2.177-.927-5.158-.3-7.692a10.31,10.31,0,0,1,7.78-7.568h0a10.219,10.219,0,0,1,12.086,7.42c3.307,12.666,6.676,28.543,3.948,32.245a6.377,6.377,0,0,1-4.39,2.823,8.016,8.016,0,0,1-5.473-1.763c-2.834.937-11,3.566-13.337,3.566C766.81,330.378,766.6,330.328,766.526,330.219Z" transform="translate(-386.924 -219.933)" fill="#5d8e96"/>
    <path id="パス_2946" data-name="パス 2946" d="M798.87,355.025a3.221,3.221,0,0,0,.443-4.533l2.019-28.322-6.873-1.144L794.6,350.2a3.221,3.221,0,0,0,4.267,4.821Z" transform="translate(-406.126 -244.621)" fill="#ffb8b8"/>
    <path id="パス_2947" data-name="パス 2947" d="M787.549,319.714l-.231-20.058q0-.054,0-.108a5.25,5.25,0,1,1,10.5.1l-.182,20.068a1.346,1.346,0,0,1-1.342,1.33h-7.4A1.347,1.347,0,0,1,787.549,319.714Z" transform="translate(-401.722 -225.898)" fill="#5d8e96"/>
    <path id="パス_2948" data-name="パス 2948" d="M773.96,238.482a8.514,8.514,0,0,0,.611-3.685,2.911,2.911,0,0,0-2.314-2.616,6.414,6.414,0,0,0-2.49.6,2.175,2.175,0,0,1-2.387-.406c-.56-.735-.182-1.778.152-2.64s.527-2.016-.222-2.559c-.521-.378-1.258-.248-1.845-.511a1.946,1.946,0,0,1-.745-2.549,4.178,4.178,0,0,1,2.192-1.884,10.425,10.425,0,0,1,14.3,6.547,8.55,8.55,0,0,1,.274,3.881,7.432,7.432,0,0,1-7.1,5.947Z" transform="translate(-385.73 -174.638)" fill="#2f2e41"/>
  </g>
</svg>
