<svg xmlns="http://www.w3.org/2000/svg" width="224" height="40.049" viewBox="0 0 224 40.049">
  <g id="グループ_4152" data-name="グループ 4152" transform="translate(-300 268.758)">
    <path id="パス_2998" data-name="パス 2998" d="M328.035-260.748l11.6.386a.4.4,0,0,0,.414-.4v-7.208a.4.4,0,0,0-.387-.4l-11.628-.388A20.033,20.033,0,0,0,310.62-258.6l.012-.032a12.336,12.336,0,0,1-10.231,5.894c-.067,0-.133,0-.2-.005h-.008a.2.2,0,0,0-.193.179v7.663a.2.2,0,0,0,.183.178h.029c.062,0,.125,0,.188,0a12.336,12.336,0,0,1,10.231,5.894l-.012-.032a20.034,20.034,0,0,0,17.414,10.158l11.628-.388a.4.4,0,0,0,.387-.4V-236.7a.4.4,0,0,0-.414-.4l-11.6.387a12.015,12.015,0,0,1-12.015-12.015A12.015,12.015,0,0,1,328.035-260.748Z" fill="#fff"/>
    <path id="パス_2999" data-name="パス 2999" d="M452.015-222.35l7.589.379a.4.4,0,0,0,.421-.4v-5.606a.4.4,0,0,0-.38-.4s-1.079-.381-7.629-.381A12.076,12.076,0,0,0,440-216.743a12.11,12.11,0,0,0,12.015,12.015c6.5,0,7.629-.382,7.629-.382a.4.4,0,0,0,.38-.4v-5.606a.4.4,0,0,0-.421-.4l-7.589.38a5.607,5.607,0,0,1-5.607-5.607A5.607,5.607,0,0,1,452.015-222.35Z" transform="translate(-83.931 -23.98)" fill="#fff"/>
    <path id="パス_3000" data-name="パス 3000" d="M610-228.357v.4a.2.2,0,0,1-.265.189,23.493,23.493,0,0,0-7.745-.986,12.076,12.076,0,0,0-12.015,12.015,12.11,12.11,0,0,0,12.015,12.015,23.539,23.539,0,0,0,7.745-.991.2.2,0,0,1,.265.189v.4a.4.4,0,0,0,.4.4h5.607a.4.4,0,0,0,.4-.4v-23.229a.4.4,0,0,0-.4-.4h-5.607A.4.4,0,0,0,610-228.357Zm-8.01,17.221a5.486,5.486,0,0,1-5.607-5.607,5.488,5.488,0,0,1,5.607-5.607,32.022,32.022,0,0,1,5.359.425A3.2,3.2,0,0,1,610-218.769v3.972a3.2,3.2,0,0,1-2.63,3.152A31.437,31.437,0,0,1,601.995-211.136Z" transform="translate(-173.844 -23.98)" fill="#fff"/>
    <path id="パス_3001" data-name="パス 3001" d="M522.015-252.738q-.316,0-.629.016a13.929,13.929,0,0,0-4.7,1.04.2.2,0,0,1-.276-.182v-16.494a.4.4,0,0,0-.4-.4H510.4a.4.4,0,0,0-.4.4v39.248a.4.4,0,0,0,.4.4h5.607a.4.4,0,0,0,.4-.4v-11.614a5.607,5.607,0,0,1,5.015-5.575c.2-.015.392-.032.592-.032a7.609,7.609,0,0,1,7.609,7.609c0,3.283-.284,8.14-.374,9.589a.4.4,0,0,0,.4.423h5.617a.4.4,0,0,0,.4-.365c.1-1.093.366-4.578.366-9.648A14.033,14.033,0,0,0,522.015-252.738Z" transform="translate(-125.896)" fill="#fff"/>
    <path id="パス_3002" data-name="パス 3002" d="M687.015-228.758q-.317,0-.629.016a13.929,13.929,0,0,0-4.7,1.04.2.2,0,0,1-.276-.182v-.474a.4.4,0,0,0-.4-.4H675.4a.4.4,0,0,0-.4.4v23.229a.4.4,0,0,0,.4.4h5.607a.4.4,0,0,0,.4-.4v-11.614a5.607,5.607,0,0,1,5.015-5.575c.2-.015.392-.032.592-.032a7.609,7.609,0,0,1,7.609,7.609c0,3.283-.284,8.14-.374,9.589a.4.4,0,0,0,.4.423h5.617a.4.4,0,0,0,.4-.365c.1-1.093.366-4.578.366-9.648A14.033,14.033,0,0,0,687.015-228.758Z" transform="translate(-224.814 -23.98)" fill="#fff"/>
    <path id="パス_3003" data-name="パス 3003" d="M782.231-212.338a7.617,7.617,0,0,0-7.557-7.607v0H764.609a1.2,1.2,0,0,1-1.2-1.2c0-.664.306-1.063,1.2-1.2.916-.141,7.5,0,7.5,0v-.006c4.35.146,8.906.4,8.906.4a.4.4,0,0,0,.411-.4v-5.607a.4.4,0,0,0-.39-.4s-3.515-.39-16.482-.39l-.01,0c-5.558.026-7.548,3.427-7.548,7.607a7.618,7.618,0,0,0,7.609,7.609h10.018a1.2,1.2,0,0,1,1.2,1.2c0,.663-.306,1.063-1.2,1.2-.916.141-7.5,0-7.5,0l0,.01c-4.51-.145-9.308-.4-9.308-.4a.4.4,0,0,0-.411.4v5.607a.4.4,0,0,0,.391.4s3.916.391,16.882.391c0,0,.007,0,.01,0C780.242-204.757,782.231-208.159,782.231-212.338Z" transform="translate(-273.974 -23.98)" fill="#fff"/>
    <circle id="楕円形_45" data-name="楕円形 45" cx="4" cy="4" r="4" transform="translate(516 -236.709)" fill="#fff"/>
  </g>
</svg>
