<svg xmlns="http://www.w3.org/2000/svg" width="40.049" height="40.049" viewBox="0 0 40.049 40.049">
  <path id="logo_favicon" d="M328.035-260.748l11.6.386a.4.4,0,0,0,.414-.4v-7.208a.4.4,0,0,0-.387-.4l-11.628-.388A20.033,20.033,0,0,0,310.62-258.6l.012-.032a12.336,12.336,0,0,1-10.231,5.894c-.067,0-.133,0-.2-.005h-.008a.2.2,0,0,0-.193.179v7.663a.2.2,0,0,0,.183.178h.029c.062,0,.125,0,.188,0a12.336,12.336,0,0,1,10.231,5.894l-.012-.032a20.034,20.034,0,0,0,17.414,10.158l11.628-.388a.4.4,0,0,0,.387-.4V-236.7a.4.4,0,0,0-.414-.4l-11.6.387a12.015,12.015,0,0,1-12.015-12.015A12.015,12.015,0,0,1,328.035-260.748Z" transform="translate(-300 268.758)" fill="#426f77"/>
</svg>
