<svg xmlns="http://www.w3.org/2000/svg" width="257.741" height="98.366" viewBox="0 0 257.741 98.366">
  <g id="philosophy_title" transform="translate(-4227.146 -2811.647) rotate(8)">
    <path id="パス_2810" data-name="パス 2810" d="M4632.376,2345.44c-.83.175-1.449.5-1.947.365a5.126,5.126,0,0,1-2.074-1.135,5.594,5.594,0,0,1-1.1-1.811,73.493,73.493,0,0,1-4.385-11.358c-.882-3.231-1.823-6.447-2.782-9.656a9.105,9.105,0,0,0-.865-1.609c-1.508.535-2.464,1.638-3.639,2.4a34,34,0,0,1-3.625,2.232,3.473,3.473,0,0,1-3.752-.334,1.026,1.026,0,0,1,.054-1.572,1.876,1.876,0,0,1,.527-.29c3.433-.745,5.8-3.215,8.473-5.2a3.015,3.015,0,0,0,1.148-3.243c-.493-2.7-.849-5.426-1.494-8.085a87.939,87.939,0,0,1-1.5-11.133c-.394-3.526-.809-7.05-1.24-10.791a4.494,4.494,0,0,0-1.394.454c-5.376,4.31-9.957,9.288-12.9,15.613a10.377,10.377,0,0,0-1.088,4.784,8.989,8.989,0,0,1,1.032.462c.818.487,1.052,1.011.822,1.717a1.439,1.439,0,0,1-1.644,1.055,9.282,9.282,0,0,1-2.86-.9c-1.737-.99-2.113-1.9-1.489-3.82a31.452,31.452,0,0,1,2.294-5.624,50.078,50.078,0,0,1,10.449-13.029c1.514-1.35,3.114-2.61,4.739-3.826a3.37,3.37,0,0,0,1.726-3.276c-.113-1.109.73-1.646,1.8-1.412a3.455,3.455,0,0,1,1.131.421,2.692,2.692,0,0,0,2.346.113c.588-.16,1.18-.31,1.77-.463a19.825,19.825,0,0,1,10.839.4,14.893,14.893,0,0,1,7.077,4.583,9.945,9.945,0,0,1,2.225,8.565,23.925,23.925,0,0,1-3.248,8.5,84.363,84.363,0,0,1-12.783,15.857,14.906,14.906,0,0,1-1.328,1.259,3.105,3.105,0,0,0-1.172,3.5c1.624,6.83,3.414,13.6,6.393,20,.548,1.178.934,2.483,2.462,2.874.288.074.563.591.655.951A23.557,23.557,0,0,1,4632.376,2345.44Zm-10.752-32.5c.785-.64,1.251-1,1.691-1.383a50.692,50.692,0,0,0,5.066-5.656,70.237,70.237,0,0,0,6.96-9.965,18.083,18.083,0,0,0,2.226-6.276c.828-5.088-1.852-9.382-6.87-10.642a16.283,16.283,0,0,0-11.283,1.2,2.127,2.127,0,0,0-1.4,2.135c.112,2.739.067,5.491.324,8.215q.658,6.966,1.635,13.9A44.557,44.557,0,0,0,4621.624,2312.941Z" transform="matrix(0.985, 0.174, -0.174, 0.985, 471.435, -844.576)" fill="#426f77" stroke="#426f77" stroke-width="3"/>
    <path id="パス_2811" data-name="パス 2811" d="M4862.373,2322.658c.165-.983.307-1.97.5-2.947a12.342,12.342,0,0,1,1.943-4.76,3.729,3.729,0,0,1,3.684-1.676,6.483,6.483,0,0,1,5.214,3.263,25.3,25.3,0,0,1,2.377,6.253c.586,2.157,1.208,4.306,1.889,6.435a8.5,8.5,0,0,0,.926,1.64c1.642.138,1.945-2.211,3.7-1.427a3.6,3.6,0,0,1-.3,3.68,3.8,3.8,0,0,1-5.646.561,7.537,7.537,0,0,1-2.414-3.806c-.821-2.726-1.656-5.448-2.552-8.149a37.62,37.62,0,0,0-1.588-3.956,5.95,5.95,0,0,0-1.037-1.257c-1.066.024-1.358.706-1.672,1.335a18.793,18.793,0,0,0-1.573,7.716,32.863,32.863,0,0,0,2.2,12.235c.132.383.353.737.469,1.124a1.3,1.3,0,0,1-1.329,1.613,3.625,3.625,0,0,1-3.3-2.308c-.488-1.335-1.174-2.6-1.669-3.93a131.443,131.443,0,0,1-5.867-19.532c-1.444-7.084-2.33-14.235-3.189-21.387-.569-4.734-.536-9.541-.747-14.316a1.25,1.25,0,0,1,1.424-1.232,2.854,2.854,0,0,1,2.689,2.46,11.948,11.948,0,0,1,.047,1.828,133.268,133.268,0,0,0,.64,16.762,154.082,154.082,0,0,0,4.134,22.777,7.215,7.215,0,0,0,.466,1.067Z" transform="matrix(0.985, 0.174, -0.174, 0.985, 269.489, -889.512)" fill="#426f77" stroke="#426f77" stroke-width="3"/>
    <path id="パス_2812" data-name="パス 2812" d="M5535.723,2221.547c-.161-1.707-.252-3.424-.5-5.118a24.443,24.443,0,0,1-.025-6.081c.272-2.637,2.118-3.326,4.4-2.172a6.1,6.1,0,0,1,1.994,1.8c.969,1.3,1.759,2.732,2.677,4.072,2.138,3.123,3.547,3.5,6.921,1.882.731-.351,1.4-.84,2.131-1.182a5.346,5.346,0,0,1,1.724-.51,1.251,1.251,0,0,1,1,.47,1.311,1.311,0,0,1-.062,1.112,8.335,8.335,0,0,1-10.29,3.6,11.254,11.254,0,0,1-4.6-3.415c-.554-.677-1.142-1.326-2.021-2.343a17.055,17.055,0,0,0-.265,2.159c.057,2.032.229,4.062.242,6.093.015,2.13-.061,4.264-.181,6.391-.057,1.01-.627,1.415-1.6,1.448a3.06,3.06,0,0,1-3.1-1.536,47.452,47.452,0,0,1-2.672-5.789,111.488,111.488,0,0,1-5-21c-.7-4.724-1.514-9.43-2.192-14.157-.346-2.411-.566-4.845-.722-7.276-.09-1.406.765-2.011,2.159-1.746,1.7.323,2.654,1.276,2.558,2.873a65.054,65.054,0,0,0,.912,12.748c.675,4.931,1.386,9.868,2.375,14.743.805,3.974,2.033,7.863,3.1,11.782a7.316,7.316,0,0,0,.618,1.264Z" transform="matrix(0.978, 0.208, -0.208, 0.978, -155.494, -1103.641)" fill="#426f77" stroke="#426f77" stroke-width="3"/>
    <path id="パス_2813" data-name="パス 2813" d="M5459.919,2322.06c1.177.592,2.311.269,3.409.277a11.973,11.973,0,0,1,6.645,1.915c2.383,1.561,3.072,3.211,2.347,6-1.174,4.507-4.134,7.6-8.075,9.859-.692.4-1.453.671-2.293,1.053a80.637,80.637,0,0,0,3.72,16.986c.448,1.38.736,2.935,2.038,4.136l1.3-1.983c.362.3.822.485.892.768q.727,2.952,1.3,5.94a1.149,1.149,0,0,1-.93,1.365,3.42,3.42,0,0,1-3.863-1.034,18,18,0,0,1-3.027-4.9,79.9,79.9,0,0,1-4.588-16.412c-.806-4.4-1.125-8.887-2.057-13.251-.745-3.49-.922-7.014-1.393-10.517-.3-2.21-.622-4.417-.9-6.63a1.385,1.385,0,0,1,1.562-1.732,4.688,4.688,0,0,1,1.5.169c1.524.525,2.06,1.283,1.99,2.668a33.3,33.3,0,0,0,.03,3.654A9.28,9.28,0,0,0,5459.919,2322.06Zm1.422,15.524a12.482,12.482,0,0,0,6.253-7.379c.93-2.674.337-4.256-3.239-4.708a5.222,5.222,0,0,0-.609-.012,3.051,3.051,0,0,0-3.307,3.461C5460.754,2331.664,5461.01,2334.387,5461.341,2337.584Z" transform="matrix(0.985, 0.174, -0.174, 0.985, -198.231, -1021.104)" fill="#426f77" stroke="#426f77" stroke-width="3"/>
    <path id="パス_2814" data-name="パス 2814" d="M5650.5,2283.3c-.656-.066-1.057-.129-1.459-.143-3.2-.113-5.209-1.875-6.668-4.589-1.637-3.044-1.66-6.243-1.184-9.506.181-1.241,1.012-1.634,2.262-1.3,2.01.538,2.723,1.484,2.276,3.56a10.9,10.9,0,0,0,1,7.106c.622,1.334,1.606,1.44,2.592.284a7.48,7.48,0,0,0,2.1-5.55,13.948,13.948,0,0,1-.055-1.828c.068-1.236.708-1.769,2-1.737.2,0,.407.017.608.042,1.706.207,2.372.839,2.379,2.555.008,1.929-.06,3.865-.224,5.788-.687,8.069-3.048,15.73-5.71,23.324a81.971,81.971,0,0,1-9.256,18.485,25.574,25.574,0,0,1-4.93,4.931.872.872,0,0,1-.824-.005.892.892,0,0,1-.334-.769,6.348,6.348,0,0,1,.941-1.87,20.8,20.8,0,0,0,2.721-4.388c.817-1.727,1.948-3.284,2.854-4.979a67.761,67.761,0,0,0,4.485-10.658,104.8,104.8,0,0,0,4.322-15.22A8.921,8.921,0,0,0,5650.5,2283.3Z" transform="matrix(0.998, 0.07, -0.07, 0.998, -647.967, -456.155)" fill="#426f77" stroke="#426f77" stroke-width="3"/>
    <path id="パス_2815" data-name="パス 2815" d="M5083.392,2242.416c.2,4.343.379,9.629.715,14.906a80.116,80.116,0,0,0,3.83,19.1c1.291,4.081,2.6,8.145,5.063,11.716a1.84,1.84,0,0,1,.171.574c.091.349-.394.829-.755.75a3.963,3.963,0,0,1-2.687-1.843,33.506,33.506,0,0,1-1.878-3.49,82.02,82.02,0,0,1-6.195-20.681,145.531,145.531,0,0,1-1.4-15.771c-.352-7.622-.539-15.242-.326-22.87.022-.813.019-1.631.113-2.437a1.318,1.318,0,0,1,2.053-.99,2.9,2.9,0,0,1,1.687,2.7c0,1.526-.063,3.052-.1,4.577C5083.592,2232.923,5083.5,2237.195,5083.392,2242.416Z" transform="matrix(0.985, 0.174, -0.174, 0.985, 82.255, -884.056)" fill="#426f77" stroke="#426f77" stroke-width="3"/>
    <path id="パス_2816" data-name="パス 2816" d="M5347.194,2371.372c.241-.04,1.028-.165,1.812-.3a7.74,7.74,0,0,1,8.113,4.068,3.487,3.487,0,0,1-.317,4,25.859,25.859,0,0,1-9.128,7.4,5.612,5.612,0,0,1-5.5-.651,7.114,7.114,0,0,1-2.977-8.718,14.525,14.525,0,0,1,2.322-3.879A5.463,5.463,0,0,1,5347.194,2371.372Zm3.39,3.161c-1.121.214-2.709.5-4.29.831a1.839,1.839,0,0,0-.786.44,7.644,7.644,0,0,0-2.794,5.529,1.482,1.482,0,0,0,1.463,1.6,3.944,3.944,0,0,0,1.489-.173,16.246,16.246,0,0,0,7.288-5.255c1.241-1.588.716-2.637-1.275-2.879C5351.479,2374.6,5351.276,2374.592,5350.583,2374.533Z" transform="translate(-593.68 -153.765)" fill="#426f77" stroke="#426f77" stroke-width="3"/>
    <path id="パス_2817" data-name="パス 2817" d="M5264.878,2376.049c1.546,1.22,2.943,2.218,4.214,3.355a30.8,30.8,0,0,1,3.838,3.87c1.47,1.885,1.272,3.092-.4,4.817a7.876,7.876,0,0,1-5.949,2.6,3.221,3.221,0,0,1-2.486-.95,5.544,5.544,0,0,1-1.386-2.269c-.2-.942.609-1.626,1.36-2.144.231.027.473-.018.614.081,1.813,1.27,2.432,1.29,3.959.082,1.246-.985,1.273-1.9,0-2.987-.848-.72-1.78-1.341-2.677-2-.814-.6-1.674-1.153-2.437-1.815a13.175,13.175,0,0,1-1.881-1.981c-1.422-1.883-1.307-2.882.543-4.4a15.314,15.314,0,0,1,7.393-3.351,5.8,5.8,0,0,1,5.992,3.269.87.87,0,0,1-.733,1.316,10.733,10.733,0,0,1-2.088-.25C5269.668,2372.6,5267.576,2373.265,5264.878,2376.049Z" transform="matrix(0.985, 0.174, -0.174, 0.985, -43.229, -1030.083)" fill="#426f77" stroke="#426f77" stroke-width="3"/>
    <path id="パス_2818" data-name="パス 2818" d="M5154.952,2418.176c.539-2.588.325-5.07,2.515-6.657.222-.16.308-.513.447-.781a3.2,3.2,0,0,1,2.99-1.718,8.936,8.936,0,0,1,7.612,4.736,4.756,4.756,0,0,1,.292,3.542,14.01,14.01,0,0,1-3.3,5.73c-3.127,3.2-7.513,2.6-9.518-1.4A18.822,18.822,0,0,1,5154.952,2418.176Zm4.248.885c.044.513.059.921.118,1.323a1.182,1.182,0,0,0,1.554,1.008,2.567,2.567,0,0,0,.837-.337,7.984,7.984,0,0,0,3.294-4.963,3.047,3.047,0,0,0-1.49-3.378,1.631,1.631,0,0,0-2.4.427A11.85,11.85,0,0,0,5159.2,2419.061Z" transform="translate(-450.405 -183.961)" fill="#426f77" stroke="#426f77" stroke-width="3"/>
    <path id="パス_2819" data-name="パス 2819" d="M5011.466,2455.009c-.263.189-.605.633-.992.675a3.084,3.084,0,0,1-3.21-1.854,50.716,50.716,0,0,1-2.6-5.815,37.6,37.6,0,0,1-1.916-9.5c-.082-1-.327-1.994-.435-3a1.52,1.52,0,0,1,1.608-1.761,2.858,2.858,0,0,1,3.123,2.952c.117,1.819.1,3.649.281,5.461a31.331,31.331,0,0,0,3.571,11.222c.183.357.356.72.519,1.086A2.469,2.469,0,0,1,5011.466,2455.009Z" transform="matrix(0.985, 0.174, -0.174, 0.985, 175.782, -1035.776)" fill="#426f77" stroke="#426f77" stroke-width="3"/>
    <path id="パス_2820" data-name="パス 2820" d="M4978.933,2374.7v1.915c-.284.125-.55.351-.8.337a9.262,9.262,0,0,1-5.332-2.554,1.253,1.253,0,0,1,.251-2.066,24.422,24.422,0,0,1,3.143-1.032,16.612,16.612,0,0,1,6.306-.441,17.105,17.105,0,0,1,3.5.86,1.153,1.153,0,0,1,.6.912,1.09,1.09,0,0,1-.712.779c-1.294.195-2.606.259-3.911.393C4980.991,2373.9,4979.93,2373.71,4978.933,2374.7Z" transform="matrix(0.985, 0.174, -0.174, 0.985, 186.894, -981.926)" fill="#426f77" stroke="#426f77" stroke-width="3"/>
  </g>
</svg>
