<svg xmlns="http://www.w3.org/2000/svg" width="24" height="19.515" viewBox="0 0 24 19.515">
  <g id="Logo_FIXED" data-name="Logo — FIXED" transform="translate(-75.1 -98.4)">
    <g id="グループ_6" data-name="グループ 6" transform="translate(75.1 98.4)">
      <path id="パス_10" data-name="パス 10" d="M82.639,117.915A13.921,13.921,0,0,0,96.651,103.9c0-.211,0-.423-.01-.634a10.033,10.033,0,0,0,2.459-2.555,9.981,9.981,0,0,1-2.833.778,4.955,4.955,0,0,0,2.17-2.727,9.8,9.8,0,0,1-3.131,1.191,4.926,4.926,0,0,0-8.519,3.371,5.443,5.443,0,0,0,.125,1.124A13.984,13.984,0,0,1,76.761,99.3a4.945,4.945,0,0,0,1.527,6.579,4.981,4.981,0,0,1-2.228-.615v.067a4.935,4.935,0,0,0,3.947,4.831,4.953,4.953,0,0,1-2.219.086,4.925,4.925,0,0,0,4.6,3.419,9.877,9.877,0,0,1-6.118,2.113,9.477,9.477,0,0,1-1.172-.067,14.008,14.008,0,0,0,7.539,2.2" transform="translate(-75.1 -98.4)" fill="#fff"/>
    </g>
  </g>
</svg>
