<svg id="Logo_FIXED" data-name="Logo — FIXED" xmlns="http://www.w3.org/2000/svg" width="20" height="16.263" viewBox="0 0 20 16.263">
  <g id="グループ_6" data-name="グループ 6">
    <path id="パス_10" data-name="パス 10" d="M81.383,114.663a11.6,11.6,0,0,0,11.677-11.677c0-.176,0-.352-.008-.528a8.361,8.361,0,0,0,2.049-2.129,8.317,8.317,0,0,1-2.361.648A4.129,4.129,0,0,0,94.548,98.7a8.163,8.163,0,0,1-2.609.992,4.1,4.1,0,0,0-7.1,2.809,4.536,4.536,0,0,0,.1.936,11.654,11.654,0,0,1-8.459-4.29,4.12,4.12,0,0,0,1.273,5.482,4.151,4.151,0,0,1-1.857-.512v.056A4.113,4.113,0,0,0,79.19,108.2a4.128,4.128,0,0,1-1.849.072,4.1,4.1,0,0,0,3.834,2.849,8.231,8.231,0,0,1-5.1,1.761,7.9,7.9,0,0,1-.976-.056,11.674,11.674,0,0,0,6.283,1.833" transform="translate(-75.1 -98.4)" fill="#426f77"/>
  </g>
</svg>
