<svg id="verification_image" xmlns="http://www.w3.org/2000/svg" width="172.857" height="159.311" viewBox="0 0 172.857 159.311">
  <path id="パス_2949" data-name="パス 2949" d="M294.469,482.777l-3.7-1.557-2.537-18.541H254.446l-2.75,18.465-3.309,1.655a.786.786,0,0,0,.352,1.489h45.425a.786.786,0,0,0,.3-1.51Z" transform="translate(-185.108 -345.41)" fill="#e6e6e6"/>
  <path id="パス_2950" data-name="パス 2950" d="M169.849,393.791H3.879A3.288,3.288,0,0,1,.6,390.5V367.1H173.13v23.4A3.288,3.288,0,0,1,169.849,393.791Z" transform="translate(-0.446 -274.055)" fill="#ccc"/>
  <path id="パス_2951" data-name="パス 2951" d="M172.857,104.1H0V3.964A3.968,3.968,0,0,1,3.964,0H168.893a3.968,3.968,0,0,1,3.964,3.964Z" fill="#3f3d56"/>
  <path id="パス_2952" data-name="パス 2952" d="M183.941,118.244H31.732a3.059,3.059,0,0,1-3.056-3.056V31.732a3.059,3.059,0,0,1,3.056-3.056H183.941A3.059,3.059,0,0,1,187,31.732v83.457A3.059,3.059,0,0,1,183.941,118.244Z" transform="translate(-21.408 -21.408)" fill="#fff"/>
  <path id="パス_2953" data-name="パス 2953" d="M256.313,546.415H170.785a.4.4,0,0,1-.39-.287.387.387,0,0,1,.276-.473.382.382,0,0,1,.1-.013h85.512a.41.41,0,0,1,.41.3.387.387,0,0,1-.294.462A.381.381,0,0,1,256.313,546.415Z" transform="translate(-127.197 -407.345)" fill="#ccc"/>
  <rect id="長方形_1238" data-name="長方形 1238" width="36.75" height="28.076" transform="translate(124.158 20.76)" fill="#f2f2f2"/>
  <rect id="長方形_1239" data-name="長方形 1239" width="33.098" height="25.286" transform="translate(125.984 22.156)" fill="#fff"/>
  <path id="パス_2954" data-name="パス 2954" d="M564.063,109.535h.013a8.825,8.825,0,0,0,.2-17.612.2.2,0,0,0-.217.2l-.193,17.21a.2.2,0,0,0,.2.2Z" transform="translate(-420.948 -68.623)" fill="#3f3d56"/>
  <path id="パス_2955" data-name="パス 2955" d="M530.246,103.152a.26.26,0,0,1,.182.078l5.925,6.059a.256.256,0,0,1,.074.184l-.092,8.235a.256.256,0,0,1-.084.188.261.261,0,0,1-.2.068,8.882,8.882,0,0,1-6.007-14.724.259.259,0,0,1,.188-.088Z" transform="translate(-394.052 -77.007)" fill="#e6e6e6"/>
  <path id="パス_2956" data-name="パス 2956" d="M544.875,91.647a.26.26,0,0,1,.177.072.257.257,0,0,1,.08.189l-.083,7.43a.259.259,0,0,1-.444.178l-5.17-5.287a.259.259,0,0,1,0-.367l.01-.009a8.9,8.9,0,0,1,5.41-2.207Z" transform="translate(-402.656 -68.418)" fill="#5d8e96"/>
  <path id="パス_2957" data-name="パス 2957" d="M541.27,170.774a1.585,1.585,0,1,1-1.567-1.6h0A1.587,1.587,0,0,1,541.27,170.774Z" transform="translate(-401.716 -126.294)" fill="#5d8e96"/>
  <path id="パス_2958" data-name="パス 2958" d="M559.136,170.974a1.585,1.585,0,1,1-1.567-1.6h0A1.587,1.587,0,0,1,559.136,170.974Z" transform="translate(-415.053 -126.443)" fill="#3f3d56"/>
  <path id="パス_2959" data-name="パス 2959" d="M577,171.175a1.585,1.585,0,1,1-1.567-1.6h0A1.587,1.587,0,0,1,577,171.175Z" transform="translate(-428.391 -126.593)" fill="#e6e6e6"/>
  <rect id="長方形_1240" data-name="長方形 1240" width="36.75" height="28.076" transform="translate(123.771 53.255)" fill="#f2f2f2"/>
  <rect id="長方形_1241" data-name="長方形 1241" width="33.098" height="25.286" transform="translate(125.597 54.65)" fill="#fff"/>
  <circle id="楕円形_36" data-name="楕円形 36" cx="1.374" cy="1.374" r="1.374" transform="translate(129.839 60.213)" fill="#3f3d56"/>
  <path id="パス_2960" data-name="パス 2960" d="M558.82,238.1a.932.932,0,1,1,0,1.864H544.366a.932.932,0,1,1,0-1.864H558.82m0-.228H544.366a1.16,1.16,0,0,0,0,2.321H558.82a1.16,1.16,0,0,0,0-2.321Z" transform="translate(-405.526 -177.579)" fill="#3f3d56"/>
  <path id="パス_2961" data-name="パス 2961" d="M546.84,240.189h-10.88a1.16,1.16,0,0,1,0-2.321H546.84a1.16,1.16,0,0,1,0,2.321Z" transform="translate(-399.249 -177.579)" fill="#5d8e96"/>
  <circle id="楕円形_37" data-name="楕円形 37" cx="1.374" cy="1.374" r="1.374" transform="translate(129.839 65.919)" fill="#3f3d56"/>
  <path id="パス_2962" data-name="パス 2962" d="M558.823,260.611a.932.932,0,0,1,0,1.864H544.369a.932.932,0,1,1,0-1.864h14.453m0-.228H544.369a1.16,1.16,0,1,0,0,2.321h14.453a1.16,1.16,0,0,0,0-2.321Z" transform="translate(-405.529 -194.387)" fill="#3f3d56"/>
  <path id="パス_2963" data-name="パス 2963" d="M550.949,262.7H535.959a1.16,1.16,0,1,1,0-2.321h14.993a1.16,1.16,0,0,1,0,2.321Z" transform="translate(-399.249 -194.387)" fill="#5d8e96"/>
  <circle id="楕円形_38" data-name="楕円形 38" cx="1.374" cy="1.374" r="1.374" transform="translate(129.839 71.626)" fill="#3f3d56"/>
  <path id="パス_2964" data-name="パス 2964" d="M558.823,283.126a.932.932,0,0,1,0,1.864H544.369a.932.932,0,1,1,0-1.864h14.453m0-.228H544.369a1.16,1.16,0,1,0,0,2.32h14.453a1.16,1.16,0,1,0,0-2.32Z" transform="translate(-405.529 -211.196)" fill="#3f3d56"/>
  <path id="パス_2965" data-name="パス 2965" d="M542.046,285.218h-6.087a1.16,1.16,0,1,1,0-2.32h6.091a1.16,1.16,0,0,1,0,2.32Z" transform="translate(-399.249 -211.196)" fill="#5d8e96"/>
  <rect id="長方形_1242" data-name="長方形 1242" width="102.674" height="52.62" transform="translate(12.974 25.728)" fill="#f2f2f2"/>
  <rect id="長方形_1243" data-name="長方形 1243" width="95.829" height="47.391" transform="translate(16.396 28.342)" fill="#fff"/>
  <path id="パス_2966" data-name="パス 2966" d="M189.483,170.366H119.626a.219.219,0,0,1-.219-.219V136.664a.219.219,0,0,1,.437,0h0v33.264h69.639a.219.219,0,0,1,0,.437Z" transform="translate(-89.143 -101.862)" fill="#3f3d56"/>
  <path id="パス_2967" data-name="パス 2967" d="M158.531,231.168h-6.354a.65.65,0,0,1-.649-.649V221.76a.65.65,0,0,1,.649-.649h6.354a.65.65,0,0,1,.649.649v8.759A.65.65,0,0,1,158.531,231.168Z" transform="translate(-113.122 -165.069)" fill="#5d8e96"/>
  <path id="パス_2968" data-name="パス 2968" d="M204.247,206.7h-6.354a.65.65,0,0,1-.649-.649V188.983a.65.65,0,0,1,.649-.649h6.354a.649.649,0,0,1,.649.649v17.066A.65.65,0,0,1,204.247,206.7Z" transform="translate(-147.251 -140.6)" fill="#5d8e96"/>
  <path id="パス_2969" data-name="パス 2969" d="M249.962,231.168h-6.354a.65.65,0,0,1-.649-.649V221.76a.65.65,0,0,1,.649-.649h6.354a.65.65,0,0,1,.649.649v8.759A.65.65,0,0,1,249.962,231.168Z" transform="translate(-181.379 -165.069)" fill="#5d8e96"/>
  <path id="パス_2970" data-name="パス 2970" d="M295.678,197.038h-6.354a.636.636,0,0,1-.649-.62v-20.4a.635.635,0,0,1,.649-.62h6.354a.636.636,0,0,1,.649.62v20.4A.636.636,0,0,1,295.678,197.038Z" transform="translate(-215.508 -130.94)" fill="#5d8e96"/>
  <path id="パス_2971" data-name="パス 2971" d="M341.394,179.652H335.04a.65.65,0,0,1-.649-.649V152.755a.65.65,0,0,1,.649-.649h6.354a.65.65,0,0,1,.649.649V179A.65.65,0,0,1,341.394,179.652Z" transform="translate(-249.637 -113.554)" fill="#5d8e96"/>
  <circle id="楕円形_39" data-name="楕円形 39" cx="1.312" cy="1.312" r="1.312" transform="translate(40.92 50.795)" fill="#3f3d56"/>
  <circle id="楕円形_40" data-name="楕円形 40" cx="1.312" cy="1.312" r="1.312" transform="translate(52.507 42.269)" fill="#3f3d56"/>
  <circle id="楕円形_41" data-name="楕円形 41" cx="1.312" cy="1.312" r="1.312" transform="translate(64.094 50.795)" fill="#3f3d56"/>
  <circle id="楕円形_42" data-name="楕円形 42" cx="1.312" cy="1.312" r="1.312" transform="translate(75.681 38.115)" fill="#3f3d56"/>
  <circle id="楕円形_43" data-name="楕円形 43" cx="1.312" cy="1.312" r="1.312" transform="translate(87.268 33.305)" fill="#3f3d56"/>
  <path id="パス_2972" data-name="パス 2972" d="M189.438,154.182l-11.614-8.7-11.456,8.581-.262-.35,11.718-8.777,11.559,8.658,11.487-12.57.046-.019,11.587-4.668.163.406-11.541,4.65Z" transform="translate(-124.005 -101.782)" fill="#3f3d56"/>
  <g id="グループ_4163" data-name="グループ 4163" transform="translate(86.654 58.415)">
    <path id="パス_2973" data-name="パス 2973" d="M426.69,242.885l.709-5.684a7.676,7.676,0,1,1,15.233,1.9l-.709,5.684a1.032,1.032,0,0,1-1.151.9l-13.187-1.645A1.032,1.032,0,0,1,426.69,242.885Z" transform="translate(-405.19 -230.475)" fill="#2f2e41"/>
    <circle id="楕円形_44" data-name="楕円形 44" cx="5.628" cy="5.628" r="5.628" transform="translate(22.189 2.851)" fill="#ffb8b8"/>
    <path id="パス_2974" data-name="パス 2974" d="M422.136,242.25a6.079,6.079,0,0,1,6.777-5.273l1.137.142a6.078,6.078,0,0,1,5.273,6.777l-.014.114-2.4-.3-.533-2.4-.45,2.274-1.242-.155-.269-1.209-.227,1.147-8.064-1.006Z" transform="translate(-401.786 -235.294)" fill="#2f2e41"/>
    <path id="パス_2975" data-name="パス 2975" d="M342.18,331.925a2.592,2.592,0,0,0,3.874.891l5.111,2.994,2.577-2.663-7.277-4.127a2.606,2.606,0,0,0-4.285,2.9Z" transform="translate(-341.888 -303.372)" fill="#ffb8b8"/>
    <path id="パス_2976" data-name="パス 2976" d="M377.064,324.619c-3.77,0-10.4-1.688-10.772-1.782l-.116-.03,1.044-5.287,10.134,2,5.505-7.752,6.32-.643-.176.232c-.082.108-8.23,10.833-9.5,12.633C379.186,324.446,378.272,324.619,377.064,324.619Z" transform="translate(-360.02 -290.685)" fill="#3f3d56"/>
    <path id="パス_2977" data-name="パス 2977" d="M397.583,339.444l-.151-.072a12.325,12.325,0,0,1-4.894-4.615c-1.651-3.027,6.079-15.869,6.62-16.761l.008-4.078,2.781-7.508,3.546-2-3.045,7.1Z" transform="translate(-379.527 -285.668)" fill="#3f3d56"/>
    <path id="パス_2978" data-name="パス 2978" d="M384.374,577.084h-3.389l-1.612-13.073h5Z" transform="translate(-369.872 -479.474)" fill="#ffb8b8"/>
    <path id="パス_2979" data-name="パス 2979" d="M370.327,615.616H359.4v-.138a4.253,4.253,0,0,1,4.253-4.253h6.675Z" transform="translate(-354.961 -514.721)" fill="#2f2e41"/>
    <path id="パス_2980" data-name="パス 2980" d="M516.75,567.28l-3.221,1.055-5.6-11.921,4.754-1.557Z" transform="translate(-465.843 -472.64)" fill="#ffb8b8"/>
    <path id="パス_2981" data-name="パス 2981" d="M518.676,602.835l-10.385,3.4-.043-.131a4.254,4.254,0,0,1,2.718-5.367h0l6.343-2.078Z" transform="translate(-465.924 -505.342)" fill="#2f2e41"/>
    <path id="パス_2982" data-name="パス 2982" d="M404.042,416.891l-9.662-16.13-8.156-17.233-7.34,15.223-2.915,19.716-10.225.142.04-.16,15.648-62.176,12.255,1.831-.558,8.089.332.472c2.769,3.933,5.631,8,3.989,12.382l4.654,13.819,10.3,23.01Z" transform="translate(-359.698 -324.389)" fill="#2f2e41"/>
    <path id="パス_2983" data-name="パス 2983" d="M420.9,323.868c-1.776,0-3.8-2.028-2.751-5.489l-.068-.049,2.524-11.154c-2.2-3.151.7-5.751.974-5.984l1.387-2.5,6.118-3.88,3.1,25.719-.046.044C429.895,322.718,422.386,323.868,420.9,323.868Z" transform="translate(-398.602 -278.508)" fill="#5d8e96"/>
    <path id="パス_2984" data-name="パス 2984" d="M462.281,326.03a3.027,3.027,0,0,1-.723-.077c-.238-.06-.623-.363-1.218-2.3-2.366-7.7-5.16-30.886-3.13-33.155l.047-.052,3.333.555a4.927,4.927,0,0,1,3.072-1.043,2.037,2.037,0,0,1,1.393.824l.023.03,1.062,15.1,3.89,17.775-.093.042C469.709,323.837,464.852,326.03,462.281,326.03Z" transform="translate(-427.458 -274.867)" fill="#3f3d56"/>
    <path id="パス_2985" data-name="パス 2985" d="M462.455,379.725a2.592,2.592,0,0,0,2.449-3.131l4.879-3.36-1.319-3.463-6.823,4.842a2.606,2.606,0,0,0,.814,5.112Z" transform="translate(-429.873 -334.465)" fill="#ffb8b8"/>
    <path id="パス_2986" data-name="パス 2986" d="M480.2,318.1l-4.346-3.187,6.109-8.33-4.688-8.273,2.1-6,.136.258c.063.12,6.323,12.046,7.415,13.957,1.136,1.988-6.329,11.091-6.647,11.478Z" transform="translate(-441.899 -276.644)" fill="#3f3d56"/>
  </g>
</svg>
