<svg xmlns="http://www.w3.org/2000/svg" width="211.761" height="114.247" viewBox="0 0 211.761 114.247">
  <g id="works_title" transform="matrix(0.914, 0.407, -0.407, 0.914, -4609.235, -3093.768)">
    <path id="パス_2827" data-name="パス 2827" d="M5547.576,1045.023c0,3.072-.093,5.382.017,7.682.36,7.477-.52,14.9-.907,22.343-.363,7-6.225,7.146-9.863,4.559a27.223,27.223,0,0,1-2.934-2.67c-5.078-4.881-8.66-10.861-12.354-16.768a89.527,89.527,0,0,1-9.058-20.408c-1.764-5.513-3.228-11.122-4.811-16.692-1-3.5-1.963-7.016-2.944-10.524-.32-1.149-.572-2.326.522-3.2a3.276,3.276,0,0,1,3.713.218,6.966,6.966,0,0,1,3.026,4.367q1.221,6.592,2.719,13.133c2.494,10.855,5.648,21.476,11.352,31.172,3.116,5.3,6.364,10.5,10.7,14.916.666.679,1.46,1.232,2.32,1.947a12.311,12.311,0,0,0,2.221-7.244c.318-6.62.468-13.25.542-19.878.058-5.137-.171-10.276-.132-15.414a36.1,36.1,0,0,0-.646-9.392,2.489,2.489,0,0,1,1.457-3.248c1.688-.559,3.789-.089,4.432,1.239a20.854,20.854,0,0,1,1.412,4.212c.813,3.384,1.354,6.842,2.323,10.177a41.5,41.5,0,0,0,3.253,8.3,21.738,21.738,0,0,0,4.459,5.26,2.861,2.861,0,0,0,4.617-.934,23.784,23.784,0,0,0,2.095-6.566,44.279,44.279,0,0,0,.249-8.924c-.326-4.787-1.011-9.549-1.493-14.327-.8-7.955-3.017-15.607-4.914-23.33-.591-2.407-1.195-4.856-.06-7.306.663-1.43,1.943-2.125,3.182-1.451a3.039,3.039,0,0,1,1.531,1.742c1.7,10.961,5.267,21.566,6.147,32.687.417,5.282,1.2,10.535,1.759,15.807a36.02,36.02,0,0,1-.821,10.866c-1.37,6.876-6.313,8.674-12.3,7.017a12.61,12.61,0,0,1-5.792-3.733C5551.023,1048.975,5549.532,1047.225,5547.576,1045.023Z" transform="translate(0 -50.193)" fill="#426f77"/>
    <path id="パス_2828" data-name="パス 2828" d="M5866.221,951.161c3.665,1.38,6.747.79,9.745-.158,2.521-.8,4.947-1.9,7.414-2.863a10.206,10.206,0,0,1,2.3-.859,2.2,2.2,0,0,1,1.75.573,2.08,2.08,0,0,1,.136,1.826,9.66,9.66,0,0,1-4.08,4.221c-4.227,2.4-8.573,4.359-13.622,4.008a29.019,29.019,0,0,0-3.442.156c-.165.647-.472,1.153-.369,1.553.948,3.673,1.879,7.351,4.027,10.582a18.118,18.118,0,0,1,1.787,3.511,1.739,1.739,0,0,1-1.742,2.363,4.6,4.6,0,0,1-2.751-.66,11.586,11.586,0,0,1-2.82-3.37,28.9,28.9,0,0,1-2.245-5.514c-3-10.161-5.928-20.345-8.874-30.523-1.2-4.136-2.251-8.321-3.62-12.4a58.5,58.5,0,0,0-3.131-6.719,21.921,21.921,0,0,1-1.182-2.164,2.809,2.809,0,0,1,3.021-3.869,5.657,5.657,0,0,1,5.283,3.863c1.309,3.749,2.705,7.482,3.728,11.313,1.28,4.79,2.208,9.674,3.319,14.51a26.677,26.677,0,0,0,.925,2.6c1.21-.989,2.034-1.726,2.923-2.374a44.331,44.331,0,0,1,5.681-3.955c3.841-1.96,7.42-.88,10.615,1.689,1.549,1.247,1.221,3.089-.627,3.948-1.37.637-2.723,1.168-4.188.033a2.06,2.06,0,0,0-1.834-.139C5870.817,944.264,5867.855,946.758,5866.221,951.161Z" transform="translate(-227.612)" fill="#426f77"/>
    <path id="パス_2829" data-name="パス 2829" d="M6004.549,974.44c-1.55-2.018-3.5-2.971-5.322-4.09s-3.738-2.147-5.51-3.362a22.821,22.821,0,0,1-3.8-3.178c-3.226-3.463-2.1-7.614,2.47-8.715a16.417,16.417,0,0,1,12.09,1.214,9.24,9.24,0,0,1,4.216,4.7,2.008,2.008,0,0,1-1.678,2.914c-1.907.338-3.657.14-4.9-1.558-.925-1.259-1.988-2.346-3.684-2.011a3.444,3.444,0,0,0-1.946,1.225c-.2.271.216,1.346.646,1.672,1.309,1,2.762,1.8,4.155,2.686,2.513,1.6,5.062,3.136,7.514,4.821a11.186,11.186,0,0,1,2.421,2.453,4.389,4.389,0,0,1,.5,4.7c-2.667,5.89-11.046,9.427-17.222,5a6.4,6.4,0,0,1-1.587-1.841,1.677,1.677,0,0,1,1.26-2.245,13.173,13.173,0,0,1,1.95.257C6000.036,979.751,6002.251,978.584,6004.549,974.44Z" transform="translate(-322.944 -29.144)" fill="#426f77"/>
    <path id="パス_2830" data-name="パス 2830" d="M5732.243,1093.935a38.524,38.524,0,0,1,.427-4.985,4.444,4.444,0,0,1,5.909-3.7,8.173,8.173,0,0,1,3.959,1.882c3.992,4.463,7.505,9.261,8.729,15.343,1.066,5.3-1.147,7.891-6.479,7.853a12.316,12.316,0,0,1-12.039-10.491C5732.455,1098.044,5732.429,1096.208,5732.243,1093.935Zm8.438.081c-.42.216-.881.309-.922.5a14.939,14.939,0,0,0,.427,7.766,3.56,3.56,0,0,0,1.048,1.636,2.655,2.655,0,0,0,1.713.537c.338-.022.824-.611.912-1.016a6.1,6.1,0,0,0,.109-2.425A14.6,14.6,0,0,0,5740.681,1094.016Z" transform="translate(-152.113 -116.324)" fill="#426f77"/>
    <path id="パス_2831" data-name="パス 2831" d="M5791.769,1049.351c2.1-2.777,3.766-5.243,5.705-7.47a7.7,7.7,0,0,1,10.728-.889,1.494,1.494,0,0,1-.357,2.482,4.191,4.191,0,0,1-.91.4c-4.369,1.064-6.581,4.183-7.858,8.2-.1.316-.236.62-.345.933-1.4,4.026-2.032,7.951.284,11.984,1.274,2.218-.185,3.974-2.69,3.668-3.427-.418-5.319-2.24-6.03-5.568a31.777,31.777,0,0,0-1.457-4.693c-.77-2.007-1.83-3.913-2.484-5.952-.649-2.018.724-3.5,2.919-3.4C5790.094,1049.081,5790.91,1049.242,5791.769,1049.351Z" transform="translate(-188.138 -85.774)" fill="#426f77"/>
  </g>
</svg>
